<?xml version="1.0" encoding="UTF-8" standalone="no"?>
<!DOCTYPE svg PUBLIC "-//W3C//DTD SVG 1.1//EN" "http://www.w3.org/Graphics/SVG/1.1/DTD/svg11.dtd">
<svg xmlns="http://www.w3.org/2000/svg" version="1.1" viewBox="0.00 0.00 1080.00 1080.00">
<g stroke-width="2.00" fill="none" stroke-linecap="butt">
<path stroke="#cb95ed" vector-effect="non-scaling-stroke" d="
  M 782.94 390.61
  A 2.20 2.20 0.0 0 1 782.62 393.33
  C 779.98 395.95 776.12 397.08 772.92 398.97
  Q 741.65 417.40 710.42 436.01
  Q 709.47 436.58 710.48 437.03
  Q 722.06 442.12 734.58 447.67
  Q 739.11 449.67 743.57 450.89
  Q 753.35 453.56 762.84 449.01
  C 765.52 447.72 768.26 446.67 770.95 445.16
  Q 791.65 433.51 812.52 420.55
  C 819.02 416.51 827.23 411.71 831.90 405.79
  Q 837.00 399.34 835.72 390.49
  Q 834.72 383.57 833.45 376.39
  Q 832.34 370.07 827.93 366.34
  C 822.13 361.44 814.90 358.29 808.04 354.39
  Q 656.91 268.30 541.24 203.54
  Q 530.77 197.68 518.85 196.21
  Q 514.41 195.66 509.09 196.67
  C 506.20 197.22 503.28 197.62 500.48 198.59
  C 487.76 203.00 465.48 215.06 464.96 230.69
  C 464.38 248.68 487.98 255.12 501.67 256.54
  Q 513.52 257.77 527.42 256.60
  Q 540.30 255.51 552.97 254.90
  A 2.12 2.12 0.0 0 1 554.16 255.20
  Q 607.83 287.44 662.44 318.05
  Q 690.79 333.94 727.53 354.88
  Q 752.07 368.86 771.16 380.58
  Q 775.50 383.24 780.70 387.72
  C 781.66 388.54 782.28 389.56 782.94 390.61"
/>
<path stroke="#cb95ed" vector-effect="non-scaling-stroke" d="
  M 419.71 263.45
  Q 418.99 263.22 418.29 263.51
  Q 413.40 265.59 408.84 268.10
  Q 381.35 283.23 349.04 302.62
  Q 314.29 323.48 298.51 333.34
  C 284.74 341.95 271.46 350.17 258.99 360.06
  Q 254.42 363.69 251.04 368.02
  C 246.50 373.85 249.86 379.41 254.84 383.22
  Q 261.16 388.05 269.72 393.23
  C 273.46 395.49 278.69 396.94 282.88 396.53
  Q 290.36 395.81 299.79 391.28
  Q 312.84 385.02 325.20 377.41
  C 357.82 357.32 389.99 336.26 422.00 315.52
  Q 440.65 303.45 462.15 290.45
  C 463.45 289.66 465.57 289.38 466.71 287.64
  A 1.62 1.60 -42.5 0 0 466.79 285.98
  Q 465.02 282.68 461.55 280.30
  Q 453.64 274.87 443.89 271.54
  Q 431.39 267.27 419.71 263.45"
/>
<path stroke="#cb95ed" vector-effect="non-scaling-stroke" d="
  M 778.05 532.73
  C 778.25 536.31 772.53 540.62 769.85 542.33
  Q 753.40 552.83 732.69 565.17
  Q 721.97 571.56 713.12 578.11
  Q 711.28 579.47 709.59 581.68
  C 706.68 585.47 712.89 588.03 715.29 588.99
  Q 724.95 592.83 734.77 596.43
  Q 740.22 598.43 745.14 599.11
  Q 750.40 599.84 756.04 597.99
  Q 761.08 596.34 764.74 594.42
  Q 789.73 581.34 811.38 567.51
  Q 817.61 563.54 823.99 557.70
  Q 833.63 548.89 833.84 535.03
  Q 833.91 530.09 833.50 526.23
  Q 832.47 516.67 824.69 510.55
  Q 817.11 504.58 808.34 499.66
  Q 785.19 486.68 761.00 474.51
  Q 733.21 460.54 705.18 444.76
  C 702.14 443.04 698.24 444.68 695.33 445.93
  Q 685.48 450.19 675.55 456.03
  Q 638.08 478.06 600.42 500.07
  Q 579.84 512.10 554.96 525.19
  C 545.23 530.31 534.94 535.13 524.36 538.14
  C 520.38 539.28 515.11 539.76 511.16 538.79
  C 508.56 538.15 505.76 537.34 503.33 536.13
  Q 486.98 527.94 469.82 518.66
  Q 410.92 486.77 343.24 447.99
  Q 321.88 435.76 307.19 427.75
  Q 304.65 426.37 301.52 425.15
  C 297.02 423.40 292.66 421.74 287.79 422.96
  Q 283.60 424.01 279.19 426.38
  C 269.73 431.47 257.96 436.56 251.99 445.97
  C 247.49 453.05 247.15 462.46 249.00 470.55
  C 249.83 474.15 251.85 477.76 254.56 480.09
  Q 261.25 485.85 270.76 490.27
  Q 291.10 499.72 310.84 509.87
  Q 375.91 543.35 441.75 578.84
  Q 462.43 589.98 477.59 596.22
  C 484.07 598.89 490.95 600.80 497.82 601.67
  Q 509.15 603.11 520.12 599.52
  Q 530.13 596.24 539.70 590.72
  Q 552.39 583.42 564.93 575.14
  Q 632.44 530.56 697.64 488.78
  Q 698.29 488.36 699.09 488.39
  Q 699.92 488.42 700.63 488.77
  Q 727.63 502.33 753.94 515.52
  Q 761.10 519.11 768.58 523.44
  C 771.76 525.29 777.85 529.17 778.05 532.73"
/>
<path stroke="#cb95ed" vector-effect="non-scaling-stroke" d="
  M 697.74 635.68
  Q 729.32 651.75 760.58 669.21
  C 766.27 672.38 771.84 675.81 776.00 680.01
  Q 778.36 682.39 775.77 684.48
  Q 771.20 688.17 765.81 691.80
  Q 750.36 702.21 734.79 711.78
  Q 650.65 763.49 564.22 810.78
  Q 550.39 818.35 532.99 826.94
  Q 528.97 828.92 524.86 830.45
  Q 521.48 831.71 517.50 831.33
  Q 508.24 830.45 499.94 826.31
  Q 484.98 818.84 470.62 810.31
  Q 405.86 771.84 336.58 731.39
  Q 314.74 718.64 275.68 692.32
  Q 275.35 692.10 274.99 692.28
  Q 266.07 696.88 258.72 701.05
  C 253.60 703.97 249.88 708.67 249.15 714.63
  C 248.36 721.17 247.36 727.97 252.15 733.22
  Q 255.78 737.21 260.08 740.05
  Q 270.46 746.92 280.64 752.50
  C 338.58 784.24 395.75 815.94 450.45 848.83
  Q 462.38 856.01 481.01 867.96
  C 488.27 872.62 496.11 877.17 504.09 880.31
  Q 509.72 882.52 516.37 883.58
  Q 521.12 884.33 525.53 883.42
  C 528.75 882.76 531.93 882.31 535.03 881.17
  Q 546.36 877.01 556.21 871.16
  Q 573.87 860.69 595.58 846.13
  Q 607.85 837.91 622.26 828.79
  Q 699.20 780.09 772.67 736.86
  C 788.65 727.46 805.31 719.06 819.66 707.38
  C 827.57 700.94 833.82 693.07 833.80 682.33
  Q 833.80 675.29 831.83 669.98
  C 828.66 661.43 818.88 655.38 810.60 650.65
  Q 800.56 644.92 797.90 643.61
  Q 759.91 624.82 723.32 604.18
  Q 712.34 597.98 701.22 591.06
  C 698.60 589.43 696.20 589.26 693.29 590.07
  Q 688.29 591.44 684.07 593.61
  Q 669.09 601.30 653.98 610.20
  C 618.92 630.85 585.81 651.46 552.18 670.40
  Q 540.17 677.16 527.31 682.06
  Q 519.10 685.19 510.73 684.89
  C 503.59 684.64 496.50 681.14 490.50 677.52
  Q 461.04 659.80 431.21 642.58
  Q 391.99 619.94 352.76 597.53
  Q 324.83 581.58 301.82 566.94
  Q 297.09 563.94 292.16 563.27
  Q 287.96 562.70 282.41 564.55
  Q 271.44 568.19 262.03 573.91
  C 252.91 579.45 246.28 587.66 244.18 598.35
  C 243.39 602.39 244.93 607.35 246.32 611.18
  C 251.01 624.07 265.12 634.59 277.35 639.96
  Q 282.29 642.13 286.92 644.49
  Q 309.88 656.15 332.14 668.10
  Q 376.83 692.11 428.51 720.32
  Q 438.73 725.90 453.05 733.17
  Q 468.65 741.08 480.62 745.08
  Q 489.14 747.92 496.96 748.84
  C 507.62 750.10 518.94 746.81 528.68 741.71
  Q 539.22 736.18 547.03 731.03
  Q 621.88 681.64 697.06 635.71
  A 0.72 0.71 42.2 0 1 697.74 635.68"
/>
</g>
<path fill="#972adb" d="
  M 0.00 0.00
  L 1080.00 0.00
  L 1080.00 1080.00
  L 0.00 1080.00
  L 0.00 0.00
  Z
  M 782.94 390.61
  A 2.20 2.20 0.0 0 1 782.62 393.33
  C 779.98 395.95 776.12 397.08 772.92 398.97
  Q 741.65 417.40 710.42 436.01
  Q 709.47 436.58 710.48 437.03
  Q 722.06 442.12 734.58 447.67
  Q 739.11 449.67 743.57 450.89
  Q 753.35 453.56 762.84 449.01
  C 765.52 447.72 768.26 446.67 770.95 445.16
  Q 791.65 433.51 812.52 420.55
  C 819.02 416.51 827.23 411.71 831.90 405.79
  Q 837.00 399.34 835.72 390.49
  Q 834.72 383.57 833.45 376.39
  Q 832.34 370.07 827.93 366.34
  C 822.13 361.44 814.90 358.29 808.04 354.39
  Q 656.91 268.30 541.24 203.54
  Q 530.77 197.68 518.85 196.21
  Q 514.41 195.66 509.09 196.67
  C 506.20 197.22 503.28 197.62 500.48 198.59
  C 487.76 203.00 465.48 215.06 464.96 230.69
  C 464.38 248.68 487.98 255.12 501.67 256.54
  Q 513.52 257.77 527.42 256.60
  Q 540.30 255.51 552.97 254.90
  A 2.12 2.12 0.0 0 1 554.16 255.20
  Q 607.83 287.44 662.44 318.05
  Q 690.79 333.94 727.53 354.88
  Q 752.07 368.86 771.16 380.58
  Q 775.50 383.24 780.70 387.72
  C 781.66 388.54 782.28 389.56 782.94 390.61
  Z
  M 419.71 263.45
  Q 418.99 263.22 418.29 263.51
  Q 413.40 265.59 408.84 268.10
  Q 381.35 283.23 349.04 302.62
  Q 314.29 323.48 298.51 333.34
  C 284.74 341.95 271.46 350.17 258.99 360.06
  Q 254.42 363.69 251.04 368.02
  C 246.50 373.85 249.86 379.41 254.84 383.22
  Q 261.16 388.05 269.72 393.23
  C 273.46 395.49 278.69 396.94 282.88 396.53
  Q 290.36 395.81 299.79 391.28
  Q 312.84 385.02 325.20 377.41
  C 357.82 357.32 389.99 336.26 422.00 315.52
  Q 440.65 303.45 462.15 290.45
  C 463.45 289.66 465.57 289.38 466.71 287.64
  A 1.62 1.60 -42.5 0 0 466.79 285.98
  Q 465.02 282.68 461.55 280.30
  Q 453.64 274.87 443.89 271.54
  Q 431.39 267.27 419.71 263.45
  Z
  M 778.05 532.73
  C 778.25 536.31 772.53 540.62 769.85 542.33
  Q 753.40 552.83 732.69 565.17
  Q 721.97 571.56 713.12 578.11
  Q 711.28 579.47 709.59 581.68
  C 706.68 585.47 712.89 588.03 715.29 588.99
  Q 724.95 592.83 734.77 596.43
  Q 740.22 598.43 745.14 599.11
  Q 750.40 599.84 756.04 597.99
  Q 761.08 596.34 764.74 594.42
  Q 789.73 581.34 811.38 567.51
  Q 817.61 563.54 823.99 557.70
  Q 833.63 548.89 833.84 535.03
  Q 833.91 530.09 833.50 526.23
  Q 832.47 516.67 824.69 510.55
  Q 817.11 504.58 808.34 499.66
  Q 785.19 486.68 761.00 474.51
  Q 733.21 460.54 705.18 444.76
  C 702.14 443.04 698.24 444.68 695.33 445.93
  Q 685.48 450.19 675.55 456.03
  Q 638.08 478.06 600.42 500.07
  Q 579.84 512.10 554.96 525.19
  C 545.23 530.31 534.94 535.13 524.36 538.14
  C 520.38 539.28 515.11 539.76 511.16 538.79
  C 508.56 538.15 505.76 537.34 503.33 536.13
  Q 486.98 527.94 469.82 518.66
  Q 410.92 486.77 343.24 447.99
  Q 321.88 435.76 307.19 427.75
  Q 304.65 426.37 301.52 425.15
  C 297.02 423.40 292.66 421.74 287.79 422.96
  Q 283.60 424.01 279.19 426.38
  C 269.73 431.47 257.96 436.56 251.99 445.97
  C 247.49 453.05 247.15 462.46 249.00 470.55
  C 249.83 474.15 251.85 477.76 254.56 480.09
  Q 261.25 485.85 270.76 490.27
  Q 291.10 499.72 310.84 509.87
  Q 375.91 543.35 441.75 578.84
  Q 462.43 589.98 477.59 596.22
  C 484.07 598.89 490.95 600.80 497.82 601.67
  Q 509.15 603.11 520.12 599.52
  Q 530.13 596.24 539.70 590.72
  Q 552.39 583.42 564.93 575.14
  Q 632.44 530.56 697.64 488.78
  Q 698.29 488.36 699.09 488.39
  Q 699.92 488.42 700.63 488.77
  Q 727.63 502.33 753.94 515.52
  Q 761.10 519.11 768.58 523.44
  C 771.76 525.29 777.85 529.17 778.05 532.73
  Z
  M 697.74 635.68
  Q 729.32 651.75 760.58 669.21
  C 766.27 672.38 771.84 675.81 776.00 680.01
  Q 778.36 682.39 775.77 684.48
  Q 771.20 688.17 765.81 691.80
  Q 750.36 702.21 734.79 711.78
  Q 650.65 763.49 564.22 810.78
  Q 550.39 818.35 532.99 826.94
  Q 528.97 828.92 524.86 830.45
  Q 521.48 831.71 517.50 831.33
  Q 508.24 830.45 499.94 826.31
  Q 484.98 818.84 470.62 810.31
  Q 405.86 771.84 336.58 731.39
  Q 314.74 718.64 275.68 692.32
  Q 275.35 692.10 274.99 692.28
  Q 266.07 696.88 258.72 701.05
  C 253.60 703.97 249.88 708.67 249.15 714.63
  C 248.36 721.17 247.36 727.97 252.15 733.22
  Q 255.78 737.21 260.08 740.05
  Q 270.46 746.92 280.64 752.50
  C 338.58 784.24 395.75 815.94 450.45 848.83
  Q 462.38 856.01 481.01 867.96
  C 488.27 872.62 496.11 877.17 504.09 880.31
  Q 509.72 882.52 516.37 883.58
  Q 521.12 884.33 525.53 883.42
  C 528.75 882.76 531.93 882.31 535.03 881.17
  Q 546.36 877.01 556.21 871.16
  Q 573.87 860.69 595.58 846.13
  Q 607.85 837.91 622.26 828.79
  Q 699.20 780.09 772.67 736.86
  C 788.65 727.46 805.31 719.06 819.66 707.38
  C 827.57 700.94 833.82 693.07 833.80 682.33
  Q 833.80 675.29 831.83 669.98
  C 828.66 661.43 818.88 655.38 810.60 650.65
  Q 800.56 644.92 797.90 643.61
  Q 759.91 624.82 723.32 604.18
  Q 712.34 597.98 701.22 591.06
  C 698.60 589.43 696.20 589.26 693.29 590.07
  Q 688.29 591.44 684.07 593.61
  Q 669.09 601.30 653.98 610.20
  C 618.92 630.85 585.81 651.46 552.18 670.40
  Q 540.17 677.16 527.31 682.06
  Q 519.10 685.19 510.73 684.89
  C 503.59 684.64 496.50 681.14 490.50 677.52
  Q 461.04 659.80 431.21 642.58
  Q 391.99 619.94 352.76 597.53
  Q 324.83 581.58 301.82 566.94
  Q 297.09 563.94 292.16 563.27
  Q 287.96 562.70 282.41 564.55
  Q 271.44 568.19 262.03 573.91
  C 252.91 579.45 246.28 587.66 244.18 598.35
  C 243.39 602.39 244.93 607.35 246.32 611.18
  C 251.01 624.07 265.12 634.59 277.35 639.96
  Q 282.29 642.13 286.92 644.49
  Q 309.88 656.15 332.14 668.10
  Q 376.83 692.11 428.51 720.32
  Q 438.73 725.90 453.05 733.17
  Q 468.65 741.08 480.62 745.08
  Q 489.14 747.92 496.96 748.84
  C 507.62 750.10 518.94 746.81 528.68 741.71
  Q 539.22 736.18 547.03 731.03
  Q 621.88 681.64 697.06 635.71
  A 0.72 0.71 42.2 0 1 697.74 635.68
  Z"
/>
<path fill="#ffffff" d="
  M 782.94 390.61
  C 782.28 389.56 781.66 388.54 780.70 387.72
  Q 775.50 383.24 771.16 380.58
  Q 752.07 368.86 727.53 354.88
  Q 690.79 333.94 662.44 318.05
  Q 607.83 287.44 554.16 255.20
  A 2.12 2.12 0.0 0 0 552.97 254.90
  Q 540.30 255.51 527.42 256.60
  Q 513.52 257.77 501.67 256.54
  C 487.98 255.12 464.38 248.68 464.96 230.69
  C 465.48 215.06 487.76 203.00 500.48 198.59
  C 503.28 197.62 506.20 197.22 509.09 196.67
  Q 514.41 195.66 518.85 196.21
  Q 530.77 197.68 541.24 203.54
  Q 656.91 268.30 808.04 354.39
  C 814.90 358.29 822.13 361.44 827.93 366.34
  Q 832.34 370.07 833.45 376.39
  Q 834.72 383.57 835.72 390.49
  Q 837.00 399.34 831.90 405.79
  C 827.23 411.71 819.02 416.51 812.52 420.55
  Q 791.65 433.51 770.95 445.16
  C 768.26 446.67 765.52 447.72 762.84 449.01
  Q 753.35 453.56 743.57 450.89
  Q 739.11 449.67 734.58 447.67
  Q 722.06 442.12 710.48 437.03
  Q 709.47 436.58 710.42 436.01
  Q 741.65 417.40 772.92 398.97
  C 776.12 397.08 779.98 395.95 782.62 393.33
  A 2.20 2.20 0.0 0 0 782.94 390.61
  Z"
/>
<path fill="#ffffff" d="
  M 419.71 263.45
  Q 431.39 267.27 443.89 271.54
  Q 453.64 274.87 461.55 280.30
  Q 465.02 282.68 466.79 285.98
  A 1.62 1.60 -42.5 0 1 466.71 287.64
  C 465.57 289.38 463.45 289.66 462.15 290.45
  Q 440.65 303.45 422.00 315.52
  C 389.99 336.26 357.82 357.32 325.20 377.41
  Q 312.84 385.02 299.79 391.28
  Q 290.36 395.81 282.88 396.53
  C 278.69 396.94 273.46 395.49 269.72 393.23
  Q 261.16 388.05 254.84 383.22
  C 249.86 379.41 246.50 373.85 251.04 368.02
  Q 254.42 363.69 258.99 360.06
  C 271.46 350.17 284.74 341.95 298.51 333.34
  Q 314.29 323.48 349.04 302.62
  Q 381.35 283.23 408.84 268.10
  Q 413.40 265.59 418.29 263.51
  Q 418.99 263.22 419.71 263.45
  Z"
/>
<path fill="#ffffff" d="
  M 778.05 532.73
  C 777.85 529.17 771.76 525.29 768.58 523.44
  Q 761.10 519.11 753.94 515.52
  Q 727.63 502.33 700.63 488.77
  Q 699.92 488.42 699.09 488.39
  Q 698.29 488.36 697.64 488.78
  Q 632.44 530.56 564.93 575.14
  Q 552.39 583.42 539.70 590.72
  Q 530.13 596.24 520.12 599.52
  Q 509.15 603.11 497.82 601.67
  C 490.95 600.80 484.07 598.89 477.59 596.22
  Q 462.43 589.98 441.75 578.84
  Q 375.91 543.35 310.84 509.87
  Q 291.10 499.72 270.76 490.27
  Q 261.25 485.85 254.56 480.09
  C 251.85 477.76 249.83 474.15 249.00 470.55
  C 247.15 462.46 247.49 453.05 251.99 445.97
  C 257.96 436.56 269.73 431.47 279.19 426.38
  Q 283.60 424.01 287.79 422.96
  C 292.66 421.74 297.02 423.40 301.52 425.15
  Q 304.65 426.37 307.19 427.75
  Q 321.88 435.76 343.24 447.99
  Q 410.92 486.77 469.82 518.66
  Q 486.98 527.94 503.33 536.13
  C 505.76 537.34 508.56 538.15 511.16 538.79
  C 515.11 539.76 520.38 539.28 524.36 538.14
  C 534.94 535.13 545.23 530.31 554.96 525.19
  Q 579.84 512.10 600.42 500.07
  Q 638.08 478.06 675.55 456.03
  Q 685.48 450.19 695.33 445.93
  C 698.24 444.68 702.14 443.04 705.18 444.76
  Q 733.21 460.54 761.00 474.51
  Q 785.19 486.68 808.34 499.66
  Q 817.11 504.58 824.69 510.55
  Q 832.47 516.67 833.50 526.23
  Q 833.91 530.09 833.84 535.03
  Q 833.63 548.89 823.99 557.70
  Q 817.61 563.54 811.38 567.51
  Q 789.73 581.34 764.74 594.42
  Q 761.08 596.34 756.04 597.99
  Q 750.40 599.84 745.14 599.11
  Q 740.22 598.43 734.77 596.43
  Q 724.95 592.83 715.29 588.99
  C 712.89 588.03 706.68 585.47 709.59 581.68
  Q 711.28 579.47 713.12 578.11
  Q 721.97 571.56 732.69 565.17
  Q 753.40 552.83 769.85 542.33
  C 772.53 540.62 778.25 536.31 778.05 532.73
  Z"
/>
<path fill="#ffffff" d="
  M 697.74 635.68
  A 0.72 0.71 42.2 0 0 697.06 635.71
  Q 621.88 681.64 547.03 731.03
  Q 539.22 736.18 528.68 741.71
  C 518.94 746.81 507.62 750.10 496.96 748.84
  Q 489.14 747.92 480.62 745.08
  Q 468.65 741.08 453.05 733.17
  Q 438.73 725.90 428.51 720.32
  Q 376.83 692.11 332.14 668.10
  Q 309.88 656.15 286.92 644.49
  Q 282.29 642.13 277.35 639.96
  C 265.12 634.59 251.01 624.07 246.32 611.18
  C 244.93 607.35 243.39 602.39 244.18 598.35
  C 246.28 587.66 252.91 579.45 262.03 573.91
  Q 271.44 568.19 282.41 564.55
  Q 287.96 562.70 292.16 563.27
  Q 297.09 563.94 301.82 566.94
  Q 324.83 581.58 352.76 597.53
  Q 391.99 619.94 431.21 642.58
  Q 461.04 659.80 490.50 677.52
  C 496.50 681.14 503.59 684.64 510.73 684.89
  Q 519.10 685.19 527.31 682.06
  Q 540.17 677.16 552.18 670.40
  C 585.81 651.46 618.92 630.85 653.98 610.20
  Q 669.09 601.30 684.07 593.61
  Q 688.29 591.44 693.29 590.07
  C 696.20 589.26 698.60 589.43 701.22 591.06
  Q 712.34 597.98 723.32 604.18
  Q 759.91 624.82 797.90 643.61
  Q 800.56 644.92 810.60 650.65
  C 818.88 655.38 828.66 661.43 831.83 669.98
  Q 833.80 675.29 833.80 682.33
  C 833.82 693.07 827.57 700.94 819.66 707.38
  C 805.31 719.06 788.65 727.46 772.67 736.86
  Q 699.20 780.09 622.26 828.79
  Q 607.85 837.91 595.58 846.13
  Q 573.87 860.69 556.21 871.16
  Q 546.36 877.01 535.03 881.17
  C 531.93 882.31 528.75 882.76 525.53 883.42
  Q 521.12 884.33 516.37 883.58
  Q 509.72 882.52 504.09 880.31
  C 496.11 877.17 488.27 872.62 481.01 867.96
  Q 462.38 856.01 450.45 848.83
  C 395.75 815.94 338.58 784.24 280.64 752.50
  Q 270.46 746.92 260.08 740.05
  Q 255.78 737.21 252.15 733.22
  C 247.36 727.97 248.36 721.17 249.15 714.63
  C 249.88 708.67 253.60 703.97 258.72 701.05
  Q 266.07 696.88 274.99 692.28
  Q 275.35 692.10 275.68 692.32
  Q 314.74 718.64 336.58 731.39
  Q 405.86 771.84 470.62 810.31
  Q 484.98 818.84 499.94 826.31
  Q 508.24 830.45 517.50 831.33
  Q 521.48 831.71 524.86 830.45
  Q 528.97 828.92 532.99 826.94
  Q 550.39 818.35 564.22 810.78
  Q 650.65 763.49 734.79 711.78
  Q 750.36 702.21 765.81 691.80
  Q 771.20 688.17 775.77 684.48
  Q 778.36 682.39 776.00 680.01
  C 771.84 675.81 766.27 672.38 760.58 669.21
  Q 729.32 651.75 697.74 635.68
  Z"
/>
</svg>
