<?xml version="1.0" encoding="UTF-8" standalone="no"?>
<!DOCTYPE svg PUBLIC "-//W3C//DTD SVG 1.1//EN" "http://www.w3.org/Graphics/SVG/1.1/DTD/svg11.dtd">
<svg xmlns="http://www.w3.org/2000/svg" version="1.1" viewBox="0.00 0.00 1071.00 218.00">
<g stroke-width="2.00" fill="none" stroke-linecap="butt">
<path stroke="#808080" vector-effect="non-scaling-stroke" d="
  M 891.43 66.48
  C 878.29 62.41 863.86 61.28 850.73 65.13
  C 838.96 68.58 834.05 76.57 832.83 88.02
  C 831.44 101.06 831.67 114.51 832.13 127.59
  Q 832.57 139.93 835.14 146.51
  C 840.67 160.71 854.77 165.87 869.09 167.24
  C 886.96 168.94 904.83 166.97 922.88 164.00
  Q 923.49 163.91 923.49 163.29
  L 923.48 17.81
  Q 923.48 17.11 922.80 17.23
  L 892.97 22.56
  Q 892.36 22.67 892.35 23.29
  L 892.04 66.04
  A 0.47 0.47 0.0 0 1 891.43 66.48"
/>
<path stroke="#808080" vector-effect="non-scaling-stroke" d="
  M 171.54 66.80
  L 171.54 18.71
  Q 171.54 18.12 170.96 18.22
  L 140.66 23.34
  Q 140.03 23.45 140.03 24.09
  L 140.03 166.76
  A 0.24 0.23 90.0 0 0 140.26 167.00
  L 171.02 167.00
  Q 171.54 167.00 171.54 166.48
  L 171.54 95.02
  Q 171.54 94.51 171.98 94.25
  C 180.24 89.31 199.93 85.34 199.94 101.22
  Q 199.96 133.95 199.96 166.69
  A 0.32 0.31 0.0 0 0 200.28 167.00
  L 231.27 167.00
  A 0.41 0.41 0.0 0 0 231.68 166.59
  Q 231.74 136.05 231.64 107.34
  Q 231.62 100.17 231.28 92.97
  Q 230.91 85.09 228.97 79.90
  C 225.89 71.65 218.41 67.11 210.02 65.30
  C 197.68 62.65 184.44 63.25 172.37 67.40
  Q 171.54 67.68 171.54 66.80"
/>
<path stroke="#808080" vector-effect="non-scaling-stroke" d="
  M 102.43 89.48
  C 91.48 84.89 79.71 82.17 68.81 78.32
  C 62.45 76.08 54.89 71.58 56.30 63.75
  C 58.26 52.91 75.14 52.08 83.39 52.28
  Q 100.85 52.72 118.09 56.49
  Q 118.72 56.63 118.66 55.99
  L 115.75 25.81
  Q 115.71 25.35 115.25 25.28
  Q 97.46 22.49 79.00 22.07
  C 71.38 21.90 63.36 22.62 55.75 23.87
  C 42.79 26.00 30.38 32.85 24.85 45.09
  Q 19.34 57.33 20.18 71.43
  C 22.01 102.02 56.29 104.77 78.24 112.81
  C 84.06 114.94 91.69 120.22 88.75 127.71
  C 86.42 133.63 80.71 135.77 74.91 136.64
  Q 68.75 137.56 63.40 137.37
  Q 43.23 136.63 22.45 131.90
  Q 21.77 131.74 21.83 132.44
  L 24.61 163.30
  Q 24.67 163.92 25.28 164.02
  Q 47.30 167.69 68.53 167.94
  C 73.58 168.01 78.81 167.50 83.86 167.06
  C 103.12 165.39 118.65 156.50 123.55 137.03
  C 126.48 125.41 126.72 112.18 119.65 102.34
  Q 113.85 94.27 102.43 89.48"
/>
<path stroke="#808080" vector-effect="non-scaling-stroke" d="
  M 603.28 89.42
  C 592.34 84.99 580.72 82.18 569.94 78.37
  C 563.44 76.07 555.75 71.55 557.33 63.55
  C 559.40 53.11 575.62 52.12 583.71 52.28
  Q 601.96 52.66 619.47 56.58
  A 0.19 0.18 4.7 0 0 619.70 56.39
  L 616.76 25.94
  Q 616.71 25.35 616.12 25.25
  C 596.43 22.19 575.24 20.45 555.36 24.13
  C 542.11 26.58 530.17 34.02 525.00 46.99
  Q 520.51 58.27 521.15 71.05
  Q 521.67 81.58 527.39 89.10
  C 534.10 97.92 547.66 103.48 558.54 106.43
  Q 568.80 109.21 577.81 112.23
  C 582.61 113.84 588.06 116.80 589.93 121.87
  C 591.73 126.76 587.92 132.43 583.65 134.34
  Q 576.27 137.66 565.13 137.36
  Q 544.90 136.81 523.45 131.90
  Q 522.77 131.74 522.83 132.43
  L 525.61 163.29
  Q 525.67 163.91 526.28 164.02
  Q 547.05 167.48 567.36 167.92
  Q 572.94 168.03 579.20 167.57
  C 590.54 166.74 601.18 165.10 610.50 158.45
  Q 618.26 152.90 621.95 144.35
  Q 627.63 131.21 626.11 116.83
  C 624.71 103.47 615.45 94.36 603.28 89.42"
/>
<path stroke="#808080" vector-effect="non-scaling-stroke" d="
  M 688.31 64.28
  L 688.32 34.61
  A 0.42 0.41 85.3 0 0 687.84 34.20
  L 657.49 39.40
  Q 656.98 39.48 656.98 40.00
  L 656.99 64.50
  A 0.50 0.50 0.0 0 1 656.49 65.00
  L 642.23 65.00
  A 0.52 0.52 0.0 0 0 641.71 65.52
  L 641.72 90.73
  Q 641.72 91.24 642.23 91.24
  L 656.47 91.24
  A 0.60 0.59 -89.5 0 1 657.06 91.85
  Q 656.67 126.31 657.71 139.69
  C 659.01 156.48 669.28 166.30 686.38 167.21
  Q 697.29 167.78 711.22 167.53
  Q 711.75 167.52 711.75 167.00
  L 711.75 145.28
  Q 711.75 144.77 711.24 144.74
  Q 705.43 144.41 699.40 143.00
  C 694.25 141.80 689.31 139.82 688.69 133.97
  Q 688.21 129.53 688.23 124.98
  Q 688.29 108.49 688.34 91.86
  Q 688.34 91.25 688.96 91.25
  L 708.53 91.24
  Q 709.07 91.24 709.14 90.71
  L 712.30 65.43
  A 0.39 0.38 -86.7 0 0 711.92 65.00
  L 689.03 65.00
  Q 688.31 65.00 688.31 64.28"
/>
<path stroke="#808080" vector-effect="non-scaling-stroke" d="
  M 373.86 97.43
  Q 385.36 92.70 396.65 90.61
  Q 399.64 90.06 407.60 90.05
  Q 408.37 90.05 408.28 89.28
  L 405.35 63.72
  Q 405.28 63.11 404.66 63.14
  C 393.46 63.83 381.95 67.23 371.36 71.35
  Q 370.88 71.54 370.70 71.05
  L 368.33 64.53
  A 0.82 0.82 0.0 0 0 367.56 64.00
  L 342.52 64.00
  A 0.23 0.23 0.0 0 0 342.29 64.23
  L 342.30 166.52
  A 0.48 0.47 90.0 0 0 342.77 167.00
  L 373.03 167.00
  A 0.38 0.37 -0.0 0 0 373.41 166.63
  L 373.41 98.10
  Q 373.41 97.62 373.86 97.43"
/>
<path stroke="#808080" vector-effect="non-scaling-stroke" d="
  M 450.80 125.00
  L 507.23 125.00
  Q 507.38 125.00 507.38 124.85
  Q 507.93 111.10 507.13 98.08
  C 505.85 77.24 492.52 66.19 473.03 63.76
  C 451.36 61.07 425.42 65.68 419.86 91.00
  Q 418.67 96.45 418.67 103.96
  Q 418.68 118.08 418.81 128.21
  Q 418.97 140.70 425.42 150.70
  C 432.22 161.23 444.76 166.46 457.28 167.43
  Q 480.78 169.27 504.49 164.03
  Q 505.12 163.90 505.12 163.25
  L 505.13 138.73
  Q 505.13 138.15 504.56 138.27
  Q 484.80 142.26 464.71 141.71
  Q 460.04 141.59 456.24 140.20
  C 450.71 138.18 449.79 130.67 450.25 125.51
  Q 450.30 125.00 450.80 125.00"
/>
<path stroke="#808080" vector-effect="non-scaling-stroke" d="
  M 297.58 109.23
  Q 287.04 109.06 275.27 109.35
  Q 265.47 109.60 260.70 111.07
  Q 245.66 115.70 243.75 131.49
  C 241.20 152.48 252.02 168.86 274.49 167.94
  Q 289.00 167.35 301.75 160.54
  A 0.34 0.34 0.0 0 1 302.24 160.76
  L 303.51 166.21
  Q 303.64 166.75 304.20 166.75
  L 329.46 166.75
  Q 329.73 166.75 329.73 166.48
  Q 329.74 134.58 329.66 104.50
  C 329.63 96.00 329.07 87.74 325.53 80.26
  C 319.63 67.79 302.85 65.21 289.82 65.09
  Q 273.51 64.95 257.09 65.04
  Q 256.58 65.04 256.53 65.55
  L 253.75 90.47
  Q 253.69 91.01 254.23 91.01
  Q 270.12 91.08 283.25 91.00
  Q 288.22 90.97 292.62 92.30
  Q 296.85 93.57 297.55 97.69
  Q 298.43 102.90 298.25 108.58
  Q 298.23 109.24 297.58 109.23"
/>
<path stroke="#808080" vector-effect="non-scaling-stroke" d="
  M 789.60 161.44
  L 791.86 166.62
  Q 792.14 167.24 792.82 167.24
  L 818.02 167.24
  Q 818.54 167.24 818.54 166.73
  L 818.54 65.33
  A 0.33 0.33 0.0 0 0 818.21 65.00
  L 787.24 65.00
  A 0.39 0.39 0.0 0 0 786.85 65.39
  L 786.73 136.81
  Q 786.73 137.43 786.19 137.75
  Q 778.73 142.16 769.47 141.89
  Q 757.31 141.54 757.32 128.81
  Q 757.35 96.81 757.33 65.32
  A 0.32 0.32 0.0 0 0 757.01 65.00
  L 725.78 65.00
  Q 725.51 65.00 725.51 65.28
  Q 725.50 94.89 725.53 129.28
  Q 725.54 138.12 726.85 146.41
  Q 727.63 151.31 729.70 154.66
  C 738.24 168.50 752.07 169.93 767.20 168.00
  Q 777.80 166.65 788.85 161.16
  A 0.56 0.56 0.0 0 1 789.60 161.44"
/>
<path stroke="#808080" vector-effect="non-scaling-stroke" d="
  M 991.51 127.25
  L 968.17 65.49
  Q 967.98 65.00 967.46 65.00
  L 933.50 65.00
  A 0.31 0.31 0.0 0 0 933.22 65.43
  Q 953.92 115.11 975.02 165.77
  C 975.93 167.96 975.23 170.61 974.69 172.82
  Q 973.45 177.89 968.61 179.41
  C 961.74 181.56 954.34 181.14 947.32 180.69
  Q 946.70 180.65 946.70 181.27
  L 946.70 206.24
  Q 946.70 206.84 947.30 206.88
  Q 961.03 207.86 972.63 206.26
  C 991.83 203.61 1001.94 190.44 1008.18 173.02
  Q 1027.50 118.99 1046.52 65.67
  A 0.51 0.50 9.7 0 0 1046.04 65.00
  L 1012.74 65.00
  A 0.61 0.61 0.0 0 0 1012.16 65.42
  L 992.21 127.23
  Q 991.88 128.25 991.51 127.25"
/>
<path stroke="#808080" vector-effect="non-scaling-stroke" d="
  M 863.57 129.06
  C 863.70 136.23 868.19 140.92 875.14 141.74
  Q 882.20 142.57 891.39 141.68
  Q 891.95 141.63 891.95 141.06
  L 891.96 94.28
  Q 891.96 93.78 891.54 93.52
  C 885.12 89.48 870.37 85.99 865.27 93.99
  Q 863.52 96.73 863.48 99.65
  Q 863.30 114.57 863.57 129.06"
/>
<path stroke="#808080" vector-effect="non-scaling-stroke" d="
  M 450.37 103.74
  L 475.61 103.78
  A 0.25 0.25 0.0 0 0 475.86 103.53
  L 475.87 97.83
  A 10.91 10.77 0.1 0 0 464.97 87.04
  L 461.05 87.04
  A 10.91 10.77 0.1 0 0 450.13 97.79
  L 450.12 103.49
  A 0.25 0.25 0.0 0 0 450.37 103.74"
/>
<path stroke="#808080" vector-effect="non-scaling-stroke" d="
  M 298.10 141.52
  A 0.28 0.28 0.0 0 0 298.25 141.27
  L 298.25 130.68
  Q 298.25 130.06 297.64 130.05
  Q 289.08 129.81 281.05 130.26
  C 278.33 130.41 275.55 131.54 275.11 134.59
  C 272.69 151.17 290.45 145.44 298.10 141.52"
/>
</g>
<path fill="#ffffff" d="
  M 0.00 0.00
  L 1071.00 0.00
  L 1071.00 218.00
  L 0.00 218.00
  L 0.00 0.00
  Z
  M 891.43 66.48
  C 878.29 62.41 863.86 61.28 850.73 65.13
  C 838.96 68.58 834.05 76.57 832.83 88.02
  C 831.44 101.06 831.67 114.51 832.13 127.59
  Q 832.57 139.93 835.14 146.51
  C 840.67 160.71 854.77 165.87 869.09 167.24
  C 886.96 168.94 904.83 166.97 922.88 164.00
  Q 923.49 163.91 923.49 163.29
  L 923.48 17.81
  Q 923.48 17.11 922.80 17.23
  L 892.97 22.56
  Q 892.36 22.67 892.35 23.29
  L 892.04 66.04
  A 0.47 0.47 0.0 0 1 891.43 66.48
  Z
  M 171.54 66.80
  L 171.54 18.71
  Q 171.54 18.12 170.96 18.22
  L 140.66 23.34
  Q 140.03 23.45 140.03 24.09
  L 140.03 166.76
  A 0.24 0.23 90.0 0 0 140.26 167.00
  L 171.02 167.00
  Q 171.54 167.00 171.54 166.48
  L 171.54 95.02
  Q 171.54 94.51 171.98 94.25
  C 180.24 89.31 199.93 85.34 199.94 101.22
  Q 199.96 133.95 199.96 166.69
  A 0.32 0.31 0.0 0 0 200.28 167.00
  L 231.27 167.00
  A 0.41 0.41 0.0 0 0 231.68 166.59
  Q 231.74 136.05 231.64 107.34
  Q 231.62 100.17 231.28 92.97
  Q 230.91 85.09 228.97 79.90
  C 225.89 71.65 218.41 67.11 210.02 65.30
  C 197.68 62.65 184.44 63.25 172.37 67.40
  Q 171.54 67.68 171.54 66.80
  Z
  M 102.43 89.48
  C 91.48 84.89 79.71 82.17 68.81 78.32
  C 62.45 76.08 54.89 71.58 56.30 63.75
  C 58.26 52.91 75.14 52.08 83.39 52.28
  Q 100.85 52.72 118.09 56.49
  Q 118.72 56.63 118.66 55.99
  L 115.75 25.81
  Q 115.71 25.35 115.25 25.28
  Q 97.46 22.49 79.00 22.07
  C 71.38 21.90 63.36 22.62 55.75 23.87
  C 42.79 26.00 30.38 32.85 24.85 45.09
  Q 19.34 57.33 20.18 71.43
  C 22.01 102.02 56.29 104.77 78.24 112.81
  C 84.06 114.94 91.69 120.22 88.75 127.71
  C 86.42 133.63 80.71 135.77 74.91 136.64
  Q 68.75 137.56 63.40 137.37
  Q 43.23 136.63 22.45 131.90
  Q 21.77 131.74 21.83 132.44
  L 24.61 163.30
  Q 24.67 163.92 25.28 164.02
  Q 47.30 167.69 68.53 167.94
  C 73.58 168.01 78.81 167.50 83.86 167.06
  C 103.12 165.39 118.65 156.50 123.55 137.03
  C 126.48 125.41 126.72 112.18 119.65 102.34
  Q 113.85 94.27 102.43 89.48
  Z
  M 603.28 89.42
  C 592.34 84.99 580.72 82.18 569.94 78.37
  C 563.44 76.07 555.75 71.55 557.33 63.55
  C 559.40 53.11 575.62 52.12 583.71 52.28
  Q 601.96 52.66 619.47 56.58
  A 0.19 0.18 4.7 0 0 619.70 56.39
  L 616.76 25.94
  Q 616.71 25.35 616.12 25.25
  C 596.43 22.19 575.24 20.45 555.36 24.13
  C 542.11 26.58 530.17 34.02 525.00 46.99
  Q 520.51 58.27 521.15 71.05
  Q 521.67 81.58 527.39 89.10
  C 534.10 97.92 547.66 103.48 558.54 106.43
  Q 568.80 109.21 577.81 112.23
  C 582.61 113.84 588.06 116.80 589.93 121.87
  C 591.73 126.76 587.92 132.43 583.65 134.34
  Q 576.27 137.66 565.13 137.36
  Q 544.90 136.81 523.45 131.90
  Q 522.77 131.74 522.83 132.43
  L 525.61 163.29
  Q 525.67 163.91 526.28 164.02
  Q 547.05 167.48 567.36 167.92
  Q 572.94 168.03 579.20 167.57
  C 590.54 166.74 601.18 165.10 610.50 158.45
  Q 618.26 152.90 621.95 144.35
  Q 627.63 131.21 626.11 116.83
  C 624.71 103.47 615.45 94.36 603.28 89.42
  Z
  M 688.31 64.28
  L 688.32 34.61
  A 0.42 0.41 85.3 0 0 687.84 34.20
  L 657.49 39.40
  Q 656.98 39.48 656.98 40.00
  L 656.99 64.50
  A 0.50 0.50 0.0 0 1 656.49 65.00
  L 642.23 65.00
  A 0.52 0.52 0.0 0 0 641.71 65.52
  L 641.72 90.73
  Q 641.72 91.24 642.23 91.24
  L 656.47 91.24
  A 0.60 0.59 -89.5 0 1 657.06 91.85
  Q 656.67 126.31 657.71 139.69
  C 659.01 156.48 669.28 166.30 686.38 167.21
  Q 697.29 167.78 711.22 167.53
  Q 711.75 167.52 711.75 167.00
  L 711.75 145.28
  Q 711.75 144.77 711.24 144.74
  Q 705.43 144.41 699.40 143.00
  C 694.25 141.80 689.31 139.82 688.69 133.97
  Q 688.21 129.53 688.23 124.98
  Q 688.29 108.49 688.34 91.86
  Q 688.34 91.25 688.96 91.25
  L 708.53 91.24
  Q 709.07 91.24 709.14 90.71
  L 712.30 65.43
  A 0.39 0.38 -86.7 0 0 711.92 65.00
  L 689.03 65.00
  Q 688.31 65.00 688.31 64.28
  Z
  M 373.86 97.43
  Q 385.36 92.70 396.65 90.61
  Q 399.64 90.06 407.60 90.05
  Q 408.37 90.05 408.28 89.28
  L 405.35 63.72
  Q 405.28 63.11 404.66 63.14
  C 393.46 63.83 381.95 67.23 371.36 71.35
  Q 370.88 71.54 370.70 71.05
  L 368.33 64.53
  A 0.82 0.82 0.0 0 0 367.56 64.00
  L 342.52 64.00
  A 0.23 0.23 0.0 0 0 342.29 64.23
  L 342.30 166.52
  A 0.48 0.47 90.0 0 0 342.77 167.00
  L 373.03 167.00
  A 0.38 0.37 -0.0 0 0 373.41 166.63
  L 373.41 98.10
  Q 373.41 97.62 373.86 97.43
  Z
  M 450.80 125.00
  L 507.23 125.00
  Q 507.38 125.00 507.38 124.85
  Q 507.93 111.10 507.13 98.08
  C 505.85 77.24 492.52 66.19 473.03 63.76
  C 451.36 61.07 425.42 65.68 419.86 91.00
  Q 418.67 96.45 418.67 103.96
  Q 418.68 118.08 418.81 128.21
  Q 418.97 140.70 425.42 150.70
  C 432.22 161.23 444.76 166.46 457.28 167.43
  Q 480.78 169.27 504.49 164.03
  Q 505.12 163.90 505.12 163.25
  L 505.13 138.73
  Q 505.13 138.15 504.56 138.27
  Q 484.80 142.26 464.71 141.71
  Q 460.04 141.59 456.24 140.20
  C 450.71 138.18 449.79 130.67 450.25 125.51
  Q 450.30 125.00 450.80 125.00
  Z
  M 297.58 109.23
  Q 287.04 109.06 275.27 109.35
  Q 265.47 109.60 260.70 111.07
  Q 245.66 115.70 243.75 131.49
  C 241.20 152.48 252.02 168.86 274.49 167.94
  Q 289.00 167.35 301.75 160.54
  A 0.34 0.34 0.0 0 1 302.24 160.76
  L 303.51 166.21
  Q 303.64 166.75 304.20 166.75
  L 329.46 166.75
  Q 329.73 166.75 329.73 166.48
  Q 329.74 134.58 329.66 104.50
  C 329.63 96.00 329.07 87.74 325.53 80.26
  C 319.63 67.79 302.85 65.21 289.82 65.09
  Q 273.51 64.95 257.09 65.04
  Q 256.58 65.04 256.53 65.55
  L 253.75 90.47
  Q 253.69 91.01 254.23 91.01
  Q 270.12 91.08 283.25 91.00
  Q 288.22 90.97 292.62 92.30
  Q 296.85 93.57 297.55 97.69
  Q 298.43 102.90 298.25 108.58
  Q 298.23 109.24 297.58 109.23
  Z
  M 789.60 161.44
  L 791.86 166.62
  Q 792.14 167.24 792.82 167.24
  L 818.02 167.24
  Q 818.54 167.24 818.54 166.73
  L 818.54 65.33
  A 0.33 0.33 0.0 0 0 818.21 65.00
  L 787.24 65.00
  A 0.39 0.39 0.0 0 0 786.85 65.39
  L 786.73 136.81
  Q 786.73 137.43 786.19 137.75
  Q 778.73 142.16 769.47 141.89
  Q 757.31 141.54 757.32 128.81
  Q 757.35 96.81 757.33 65.32
  A 0.32 0.32 0.0 0 0 757.01 65.00
  L 725.78 65.00
  Q 725.51 65.00 725.51 65.28
  Q 725.50 94.89 725.53 129.28
  Q 725.54 138.12 726.85 146.41
  Q 727.63 151.31 729.70 154.66
  C 738.24 168.50 752.07 169.93 767.20 168.00
  Q 777.80 166.65 788.85 161.16
  A 0.56 0.56 0.0 0 1 789.60 161.44
  Z
  M 991.51 127.25
  L 968.17 65.49
  Q 967.98 65.00 967.46 65.00
  L 933.50 65.00
  A 0.31 0.31 0.0 0 0 933.22 65.43
  Q 953.92 115.11 975.02 165.77
  C 975.93 167.96 975.23 170.61 974.69 172.82
  Q 973.45 177.89 968.61 179.41
  C 961.74 181.56 954.34 181.14 947.32 180.69
  Q 946.70 180.65 946.70 181.27
  L 946.70 206.24
  Q 946.70 206.84 947.30 206.88
  Q 961.03 207.86 972.63 206.26
  C 991.83 203.61 1001.94 190.44 1008.18 173.02
  Q 1027.50 118.99 1046.52 65.67
  A 0.51 0.50 9.7 0 0 1046.04 65.00
  L 1012.74 65.00
  A 0.61 0.61 0.0 0 0 1012.16 65.42
  L 992.21 127.23
  Q 991.88 128.25 991.51 127.25
  Z"
/>
<path fill="#000000" d="
  M 891.43 66.48
  A 0.47 0.47 0.0 0 0 892.04 66.04
  L 892.35 23.29
  Q 892.36 22.67 892.97 22.56
  L 922.80 17.23
  Q 923.48 17.11 923.48 17.81
  L 923.49 163.29
  Q 923.49 163.91 922.88 164.00
  C 904.83 166.97 886.96 168.94 869.09 167.24
  C 854.77 165.87 840.67 160.71 835.14 146.51
  Q 832.57 139.93 832.13 127.59
  C 831.67 114.51 831.44 101.06 832.83 88.02
  C 834.05 76.57 838.96 68.58 850.73 65.13
  C 863.86 61.28 878.29 62.41 891.43 66.48
  Z
  M 863.57 129.06
  C 863.70 136.23 868.19 140.92 875.14 141.74
  Q 882.20 142.57 891.39 141.68
  Q 891.95 141.63 891.95 141.06
  L 891.96 94.28
  Q 891.96 93.78 891.54 93.52
  C 885.12 89.48 870.37 85.99 865.27 93.99
  Q 863.52 96.73 863.48 99.65
  Q 863.30 114.57 863.57 129.06
  Z"
/>
<path fill="#000000" d="
  M 172.37 67.40
  C 184.44 63.25 197.68 62.65 210.02 65.30
  C 218.41 67.11 225.89 71.65 228.97 79.90
  Q 230.91 85.09 231.28 92.97
  Q 231.62 100.17 231.64 107.34
  Q 231.74 136.05 231.68 166.59
  A 0.41 0.41 0.0 0 1 231.27 167.00
  L 200.28 167.00
  A 0.32 0.31 -0.0 0 1 199.96 166.69
  Q 199.96 133.95 199.94 101.22
  C 199.93 85.34 180.24 89.31 171.98 94.25
  Q 171.54 94.51 171.54 95.02
  L 171.54 166.48
  Q 171.54 167.00 171.02 167.00
  L 140.26 167.00
  A 0.24 0.23 -90.0 0 1 140.03 166.76
  L 140.03 24.09
  Q 140.03 23.45 140.66 23.34
  L 170.96 18.22
  Q 171.54 18.12 171.54 18.71
  L 171.54 66.80
  Q 171.54 67.68 172.37 67.40
  Z"
/>
<path fill="#000000" d="
  M 102.43 89.48
  Q 113.85 94.27 119.65 102.34
  C 126.72 112.18 126.48 125.41 123.55 137.03
  C 118.65 156.50 103.12 165.39 83.86 167.06
  C 78.81 167.50 73.58 168.01 68.53 167.94
  Q 47.30 167.69 25.28 164.02
  Q 24.67 163.92 24.61 163.30
  L 21.83 132.44
  Q 21.77 131.74 22.45 131.90
  Q 43.23 136.63 63.40 137.37
  Q 68.75 137.56 74.91 136.64
  C 80.71 135.77 86.42 133.63 88.75 127.71
  C 91.69 120.22 84.06 114.94 78.24 112.81
  C 56.29 104.77 22.01 102.02 20.18 71.43
  Q 19.34 57.33 24.85 45.09
  C 30.38 32.85 42.79 26.00 55.75 23.87
  C 63.36 22.62 71.38 21.90 79.00 22.07
  Q 97.46 22.49 115.25 25.28
  Q 115.71 25.35 115.75 25.81
  L 118.66 55.99
  Q 118.72 56.63 118.09 56.49
  Q 100.85 52.72 83.39 52.28
  C 75.14 52.08 58.26 52.91 56.30 63.75
  C 54.89 71.58 62.45 76.08 68.81 78.32
  C 79.71 82.17 91.48 84.89 102.43 89.48
  Z"
/>
<path fill="#000000" d="
  M 603.28 89.42
  C 615.45 94.36 624.71 103.47 626.11 116.83
  Q 627.63 131.21 621.95 144.35
  Q 618.26 152.90 610.50 158.45
  C 601.18 165.10 590.54 166.74 579.20 167.57
  Q 572.94 168.03 567.36 167.92
  Q 547.05 167.48 526.28 164.02
  Q 525.67 163.91 525.61 163.29
  L 522.83 132.43
  Q 522.77 131.74 523.45 131.90
  Q 544.90 136.81 565.13 137.36
  Q 576.27 137.66 583.65 134.34
  C 587.92 132.43 591.73 126.76 589.93 121.87
  C 588.06 116.80 582.61 113.84 577.81 112.23
  Q 568.80 109.21 558.54 106.43
  C 547.66 103.48 534.10 97.92 527.39 89.10
  Q 521.67 81.58 521.15 71.05
  Q 520.51 58.27 525.00 46.99
  C 530.17 34.02 542.11 26.58 555.36 24.13
  C 575.24 20.45 596.43 22.19 616.12 25.25
  Q 616.71 25.35 616.76 25.94
  L 619.70 56.39
  A 0.19 0.18 4.7 0 1 619.47 56.58
  Q 601.96 52.66 583.71 52.28
  C 575.62 52.12 559.40 53.11 557.33 63.55
  C 555.75 71.55 563.44 76.07 569.94 78.37
  C 580.72 82.18 592.34 84.99 603.28 89.42
  Z"
/>
<path fill="#000000" d="
  M 689.03 65.00
  L 711.92 65.00
  A 0.39 0.38 -86.7 0 1 712.30 65.43
  L 709.14 90.71
  Q 709.07 91.24 708.53 91.24
  L 688.96 91.25
  Q 688.34 91.25 688.34 91.86
  Q 688.29 108.49 688.23 124.98
  Q 688.21 129.53 688.69 133.97
  C 689.31 139.82 694.25 141.80 699.40 143.00
  Q 705.43 144.41 711.24 144.74
  Q 711.75 144.77 711.75 145.28
  L 711.75 167.00
  Q 711.75 167.52 711.22 167.53
  Q 697.29 167.78 686.38 167.21
  C 669.28 166.30 659.01 156.48 657.71 139.69
  Q 656.67 126.31 657.06 91.85
  A 0.60 0.59 -89.5 0 0 656.47 91.24
  L 642.23 91.24
  Q 641.72 91.24 641.72 90.73
  L 641.71 65.52
  A 0.52 0.52 0.0 0 1 642.23 65.00
  L 656.49 65.00
  A 0.50 0.50 0.0 0 0 656.99 64.50
  L 656.98 40.00
  Q 656.98 39.48 657.49 39.40
  L 687.84 34.20
  A 0.42 0.41 85.3 0 1 688.32 34.61
  L 688.31 64.28
  Q 688.31 65.00 689.03 65.00
  Z"
/>
<path fill="#000000" d="
  M 373.41 98.10
  L 373.41 166.63
  A 0.38 0.37 -0.0 0 1 373.03 167.00
  L 342.77 167.00
  A 0.48 0.47 -90.0 0 1 342.30 166.52
  L 342.29 64.23
  A 0.23 0.23 0.0 0 1 342.52 64.00
  L 367.56 64.00
  A 0.82 0.82 0.0 0 1 368.33 64.53
  L 370.70 71.05
  Q 370.88 71.54 371.36 71.35
  C 381.95 67.23 393.46 63.83 404.66 63.14
  Q 405.28 63.11 405.35 63.72
  L 408.28 89.28
  Q 408.37 90.05 407.60 90.05
  Q 399.64 90.06 396.65 90.61
  Q 385.36 92.70 373.86 97.43
  Q 373.41 97.62 373.41 98.10
  Z"
/>
<path fill="#000000" d="
  M 450.25 125.51
  C 449.79 130.67 450.71 138.18 456.24 140.20
  Q 460.04 141.59 464.71 141.71
  Q 484.80 142.26 504.56 138.27
  Q 505.13 138.15 505.13 138.73
  L 505.12 163.25
  Q 505.12 163.90 504.49 164.03
  Q 480.78 169.27 457.28 167.43
  C 444.76 166.46 432.22 161.23 425.42 150.70
  Q 418.97 140.70 418.81 128.21
  Q 418.68 118.08 418.67 103.96
  Q 418.67 96.45 419.86 91.00
  C 425.42 65.68 451.36 61.07 473.03 63.76
  C 492.52 66.19 505.85 77.24 507.13 98.08
  Q 507.93 111.10 507.38 124.85
  Q 507.38 125.00 507.23 125.00
  L 450.80 125.00
  Q 450.30 125.00 450.25 125.51
  Z
  M 450.37 103.74
  L 475.61 103.78
  A 0.25 0.25 0.0 0 0 475.86 103.53
  L 475.87 97.83
  A 10.91 10.77 0.1 0 0 464.97 87.04
  L 461.05 87.04
  A 10.91 10.77 0.1 0 0 450.13 97.79
  L 450.12 103.49
  A 0.25 0.25 0.0 0 0 450.37 103.74
  Z"
/>
<path fill="#000000" d="
  M 298.25 108.58
  Q 298.43 102.90 297.55 97.69
  Q 296.85 93.57 292.62 92.30
  Q 288.22 90.97 283.25 91.00
  Q 270.12 91.08 254.23 91.01
  Q 253.69 91.01 253.75 90.47
  L 256.53 65.55
  Q 256.58 65.04 257.09 65.04
  Q 273.51 64.95 289.82 65.09
  C 302.85 65.21 319.63 67.79 325.53 80.26
  C 329.07 87.74 329.63 96.00 329.66 104.50
  Q 329.74 134.58 329.73 166.48
  Q 329.73 166.75 329.46 166.75
  L 304.20 166.75
  Q 303.64 166.75 303.51 166.21
  L 302.24 160.76
  A 0.34 0.34 0.0 0 0 301.75 160.54
  Q 289.00 167.35 274.49 167.94
  C 252.02 168.86 241.20 152.48 243.75 131.49
  Q 245.66 115.70 260.70 111.07
  Q 265.47 109.60 275.27 109.35
  Q 287.04 109.06 297.58 109.23
  Q 298.23 109.24 298.25 108.58
  Z
  M 298.10 141.52
  A 0.28 0.28 0.0 0 0 298.25 141.27
  L 298.25 130.68
  Q 298.25 130.06 297.64 130.05
  Q 289.08 129.81 281.05 130.26
  C 278.33 130.41 275.55 131.54 275.11 134.59
  C 272.69 151.17 290.45 145.44 298.10 141.52
  Z"
/>
<path fill="#000000" d="
  M 789.60 161.44
  A 0.56 0.56 0.0 0 0 788.85 161.16
  Q 777.80 166.65 767.20 168.00
  C 752.07 169.93 738.24 168.50 729.70 154.66
  Q 727.63 151.31 726.85 146.41
  Q 725.54 138.12 725.53 129.28
  Q 725.50 94.89 725.51 65.28
  Q 725.51 65.00 725.78 65.00
  L 757.01 65.00
  A 0.32 0.32 0.0 0 1 757.33 65.32
  Q 757.35 96.81 757.32 128.81
  Q 757.31 141.54 769.47 141.89
  Q 778.73 142.16 786.19 137.75
  Q 786.73 137.43 786.73 136.81
  L 786.85 65.39
  A 0.39 0.39 0.0 0 1 787.24 65.00
  L 818.21 65.00
  A 0.33 0.33 0.0 0 1 818.54 65.33
  L 818.54 166.73
  Q 818.54 167.24 818.02 167.24
  L 792.82 167.24
  Q 792.14 167.24 791.86 166.62
  L 789.60 161.44
  Z"
/>
<path fill="#000000" d="
  M 991.51 127.25
  Q 991.88 128.25 992.21 127.23
  L 1012.16 65.42
  A 0.61 0.61 0.0 0 1 1012.74 65.00
  L 1046.04 65.00
  A 0.51 0.50 9.7 0 1 1046.52 65.67
  Q 1027.50 118.99 1008.18 173.02
  C 1001.94 190.44 991.83 203.61 972.63 206.26
  Q 961.03 207.86 947.30 206.88
  Q 946.70 206.84 946.70 206.24
  L 946.70 181.27
  Q 946.70 180.65 947.32 180.69
  C 954.34 181.14 961.74 181.56 968.61 179.41
  Q 973.45 177.89 974.69 172.82
  C 975.23 170.61 975.93 167.96 975.02 165.77
  Q 953.92 115.11 933.22 65.43
  A 0.31 0.31 0.0 0 1 933.50 65.00
  L 967.46 65.00
  Q 967.98 65.00 968.17 65.49
  L 991.51 127.25
  Z"
/>
<path fill="#ffffff" d="
  M 450.37 103.74
  A 0.25 0.25 0.0 0 1 450.12 103.49
  L 450.13 97.79
  A 10.91 10.77 0.1 0 1 461.05 87.04
  L 464.97 87.04
  A 10.91 10.77 0.1 0 1 475.87 97.83
  L 475.86 103.53
  A 0.25 0.25 0.0 0 1 475.61 103.78
  L 450.37 103.74
  Z"
/>
<path fill="#ffffff" d="
  M 875.14 141.74
  C 868.19 140.92 863.70 136.23 863.57 129.06
  Q 863.30 114.57 863.48 99.65
  Q 863.52 96.73 865.27 93.99
  C 870.37 85.99 885.12 89.48 891.54 93.52
  Q 891.96 93.78 891.96 94.28
  L 891.95 141.06
  Q 891.95 141.63 891.39 141.68
  Q 882.20 142.57 875.14 141.74
  Z"
/>
<path fill="#ffffff" d="
  M 298.10 141.52
  C 290.45 145.44 272.69 151.17 275.11 134.59
  C 275.55 131.54 278.33 130.41 281.05 130.26
  Q 289.08 129.81 297.64 130.05
  Q 298.25 130.06 298.25 130.68
  L 298.25 141.27
  A 0.28 0.28 0.0 0 1 298.10 141.52
  Z"
/>
</svg>
