<?xml version="1.0" encoding="UTF-8" standalone="no"?>
<!DOCTYPE svg PUBLIC "-//W3C//DTD SVG 1.1//EN" "http://www.w3.org/Graphics/SVG/1.1/DTD/svg11.dtd">
<svg xmlns="http://www.w3.org/2000/svg" version="1.1" viewBox="0.00 0.00 184.00 208.00">
<g stroke-width="2.00" fill="none" stroke-linecap="butt">
<path stroke="#8c8c8c" vector-effect="non-scaling-stroke" d="
  M 155.22 64.41
  A 0.41 0.41 0.0 0 1 155.19 65.09
  L 137.06 76.08
  A 0.46 0.46 0.0 0 0 137.11 76.89
  Q 141.01 78.72 145.20 80.49
  Q 147.33 81.39 149.31 80.29
  Q 156.43 76.34 165.33 70.73
  C 166.86 69.77 168.89 68.95 168.71 66.72
  Q 168.47 63.76 168.49 60.76
  Q 168.51 59.04 166.47 57.90
  Q 133.01 39.16 94.44 17.41
  C 88.12 13.85 81.17 14.96 76.13 20.33
  C 73.01 23.65 74.22 28.10 78.47 29.65
  C 83.59 31.50 88.29 31.24 93.47 30.11
  C 94.99 29.78 96.78 30.23 98.10 31.00
  Q 121.27 44.53 143.61 56.96
  Q 149.55 60.27 155.22 64.41"
/>
<path stroke="#84c4db" vector-effect="non-scaling-stroke" d="
  M 23.26 64.57
  C 25.94 65.83 29.27 67.30 32.04 65.57
  Q 50.55 54.02 72.46 39.75
  Q 73.36 39.16 74.34 38.57
  Q 75.01 38.16 74.48 37.59
  C 71.99 34.84 66.55 33.42 63.15 32.48
  A 3.54 3.50 37.4 0 0 60.43 32.83
  Q 42.19 43.51 24.02 54.77
  Q 22.15 55.93 20.50 57.46
  C 17.69 60.07 20.70 63.36 23.26 64.57"
/>
<path stroke="#8c8c8c" vector-effect="non-scaling-stroke" d="
  M 154.27 101.50
  L 135.45 113.50
  A 0.38 0.37 -47.2 0 0 135.47 114.15
  C 138.93 116.03 145.47 119.22 149.37 117.25
  Q 159.22 112.27 166.44 106.87
  C 168.76 105.13 168.19 99.39 167.78 96.92
  A 2.06 2.04 16.1 0 0 167.12 95.73
  Q 164.82 93.71 163.96 93.26
  Q 149.22 85.73 134.88 77.81
  Q 134.32 77.51 133.78 77.82
  C 120.91 85.26 108.24 93.12 95.11 100.03
  C 92.84 101.22 89.30 102.62 86.90 102.36
  C 83.56 102.01 81.13 100.22 78.27 98.64
  Q 56.92 86.86 34.25 74.08
  Q 31.28 72.41 29.69 72.83
  C 23.17 74.57 17.28 78.02 19.63 85.94
  Q 20.13 87.63 21.90 88.48
  Q 46.78 100.48 76.84 117.11
  Q 80.06 118.89 82.11 118.95
  Q 88.44 119.13 94.29 115.19
  Q 112.95 102.64 133.11 90.02
  A 1.79 1.77 -47.0 0 1 134.86 89.95
  L 154.20 99.95
  A 0.90 0.89 -47.7 0 1 154.27 101.50"
/>
<path stroke="#8c8c8c" vector-effect="non-scaling-stroke" d="
  M 153.23 139.51
  Q 152.04 140.62 150.50 141.54
  Q 126.59 155.85 96.47 174.15
  C 91.43 177.20 86.69 177.74 81.45 174.58
  Q 70.86 168.20 33.93 146.62
  C 31.42 145.15 28.25 141.71 25.23 142.22
  C 23.12 142.58 20.68 143.72 19.64 145.72
  C 17.86 149.18 19.21 152.02 22.30 153.74
  Q 43.68 165.68 63.38 176.70
  Q 71.43 181.20 76.22 184.61
  Q 81.96 188.69 85.70 189.48
  Q 91.99 190.79 97.02 187.42
  Q 128.84 166.11 163.22 146.64
  Q 169.16 143.28 168.26 137.11
  C 167.95 134.94 166.62 132.91 164.70 131.89
  C 154.30 126.38 144.42 121.32 133.87 114.82
  A 2.19 2.19 0.0 0 0 131.57 114.82
  Q 114.40 125.34 94.39 137.04
  C 89.84 139.70 85.78 140.46 81.06 137.71
  Q 63.03 127.18 41.19 114.50
  Q 36.74 111.91 32.56 109.41
  Q 30.78 108.34 28.81 108.68
  C 24.38 109.44 19.86 111.97 18.74 116.55
  C 17.97 119.66 18.90 124.50 22.13 125.94
  Q 28.00 128.57 33.39 131.40
  Q 53.24 141.82 73.91 153.28
  C 81.43 157.44 87.89 156.30 94.81 151.60
  Q 114.12 138.48 132.36 127.82
  Q 133.66 127.06 135.00 127.76
  Q 143.69 132.29 152.96 137.35
  A 1.35 1.34 38.0 0 1 153.23 139.51"
/>
</g>
<path fill="#e5e5e5" d="
  M 0.00 0.00
  L 184.00 0.00
  L 184.00 208.00
  L 0.00 208.00
  L 0.00 0.00
  Z
  M 155.22 64.41
  A 0.41 0.41 0.0 0 1 155.19 65.09
  L 137.06 76.08
  A 0.46 0.46 0.0 0 0 137.11 76.89
  Q 141.01 78.72 145.20 80.49
  Q 147.33 81.39 149.31 80.29
  Q 156.43 76.34 165.33 70.73
  C 166.86 69.77 168.89 68.95 168.71 66.72
  Q 168.47 63.76 168.49 60.76
  Q 168.51 59.04 166.47 57.90
  Q 133.01 39.16 94.44 17.41
  C 88.12 13.85 81.17 14.96 76.13 20.33
  C 73.01 23.65 74.22 28.10 78.47 29.65
  C 83.59 31.50 88.29 31.24 93.47 30.11
  C 94.99 29.78 96.78 30.23 98.10 31.00
  Q 121.27 44.53 143.61 56.96
  Q 149.55 60.27 155.22 64.41
  Z
  M 23.26 64.57
  C 25.94 65.83 29.27 67.30 32.04 65.57
  Q 50.55 54.02 72.46 39.75
  Q 73.36 39.16 74.34 38.57
  Q 75.01 38.16 74.48 37.59
  C 71.99 34.84 66.55 33.42 63.15 32.48
  A 3.54 3.50 37.4 0 0 60.43 32.83
  Q 42.19 43.51 24.02 54.77
  Q 22.15 55.93 20.50 57.46
  C 17.69 60.07 20.70 63.36 23.26 64.57
  Z
  M 154.27 101.50
  L 135.45 113.50
  A 0.38 0.37 -47.2 0 0 135.47 114.15
  C 138.93 116.03 145.47 119.22 149.37 117.25
  Q 159.22 112.27 166.44 106.87
  C 168.76 105.13 168.19 99.39 167.78 96.92
  A 2.06 2.04 16.1 0 0 167.12 95.73
  Q 164.82 93.71 163.96 93.26
  Q 149.22 85.73 134.88 77.81
  Q 134.32 77.51 133.78 77.82
  C 120.91 85.26 108.24 93.12 95.11 100.03
  C 92.84 101.22 89.30 102.62 86.90 102.36
  C 83.56 102.01 81.13 100.22 78.27 98.64
  Q 56.92 86.86 34.25 74.08
  Q 31.28 72.41 29.69 72.83
  C 23.17 74.57 17.28 78.02 19.63 85.94
  Q 20.13 87.63 21.90 88.48
  Q 46.78 100.48 76.84 117.11
  Q 80.06 118.89 82.11 118.95
  Q 88.44 119.13 94.29 115.19
  Q 112.95 102.64 133.11 90.02
  A 1.79 1.77 -47.0 0 1 134.86 89.95
  L 154.20 99.95
  A 0.90 0.89 -47.7 0 1 154.27 101.50
  Z
  M 153.23 139.51
  Q 152.04 140.62 150.50 141.54
  Q 126.59 155.85 96.47 174.15
  C 91.43 177.20 86.69 177.74 81.45 174.58
  Q 70.86 168.20 33.93 146.62
  C 31.42 145.15 28.25 141.71 25.23 142.22
  C 23.12 142.58 20.68 143.72 19.64 145.72
  C 17.86 149.18 19.21 152.02 22.30 153.74
  Q 43.68 165.68 63.38 176.70
  Q 71.43 181.20 76.22 184.61
  Q 81.96 188.69 85.70 189.48
  Q 91.99 190.79 97.02 187.42
  Q 128.84 166.11 163.22 146.64
  Q 169.16 143.28 168.26 137.11
  C 167.95 134.94 166.62 132.91 164.70 131.89
  C 154.30 126.38 144.42 121.32 133.87 114.82
  A 2.19 2.19 0.0 0 0 131.57 114.82
  Q 114.40 125.34 94.39 137.04
  C 89.84 139.70 85.78 140.46 81.06 137.71
  Q 63.03 127.18 41.19 114.50
  Q 36.74 111.91 32.56 109.41
  Q 30.78 108.34 28.81 108.68
  C 24.38 109.44 19.86 111.97 18.74 116.55
  C 17.97 119.66 18.90 124.50 22.13 125.94
  Q 28.00 128.57 33.39 131.40
  Q 53.24 141.82 73.91 153.28
  C 81.43 157.44 87.89 156.30 94.81 151.60
  Q 114.12 138.48 132.36 127.82
  Q 133.66 127.06 135.00 127.76
  Q 143.69 132.29 152.96 137.35
  A 1.35 1.34 38.0 0 1 153.23 139.51
  Z"
/>
<path fill="#333333" d="
  M 155.22 64.41
  Q 149.55 60.27 143.61 56.96
  Q 121.27 44.53 98.10 31.00
  C 96.78 30.23 94.99 29.78 93.47 30.11
  C 88.29 31.24 83.59 31.50 78.47 29.65
  C 74.22 28.10 73.01 23.65 76.13 20.33
  C 81.17 14.96 88.12 13.85 94.44 17.41
  Q 133.01 39.16 166.47 57.90
  Q 168.51 59.04 168.49 60.76
  Q 168.47 63.76 168.71 66.72
  C 168.89 68.95 166.86 69.77 165.33 70.73
  Q 156.43 76.34 149.31 80.29
  Q 147.33 81.39 145.20 80.49
  Q 141.01 78.72 137.11 76.89
  A 0.46 0.46 0.0 0 1 137.06 76.08
  L 155.19 65.09
  A 0.41 0.41 0.0 0 0 155.22 64.41
  Z"
/>
<path fill="#22a3d1" d="
  M 23.26 64.57
  C 20.70 63.36 17.69 60.07 20.50 57.46
  Q 22.15 55.93 24.02 54.77
  Q 42.19 43.51 60.43 32.83
  A 3.54 3.50 37.4 0 1 63.15 32.48
  C 66.55 33.42 71.99 34.84 74.48 37.59
  Q 75.01 38.16 74.34 38.57
  Q 73.36 39.16 72.46 39.75
  Q 50.55 54.02 32.04 65.57
  C 29.27 67.30 25.94 65.83 23.26 64.57
  Z"
/>
<path fill="#333333" d="
  M 154.27 101.50
  A 0.90 0.89 -47.7 0 0 154.20 99.95
  L 134.86 89.95
  A 1.79 1.77 -47.0 0 0 133.11 90.02
  Q 112.95 102.64 94.29 115.19
  Q 88.44 119.13 82.11 118.95
  Q 80.06 118.89 76.84 117.11
  Q 46.78 100.48 21.90 88.48
  Q 20.13 87.63 19.63 85.94
  C 17.28 78.02 23.17 74.57 29.69 72.83
  Q 31.28 72.41 34.25 74.08
  Q 56.92 86.86 78.27 98.64
  C 81.13 100.22 83.56 102.01 86.90 102.36
  C 89.30 102.62 92.84 101.22 95.11 100.03
  C 108.24 93.12 120.91 85.26 133.78 77.82
  Q 134.32 77.51 134.88 77.81
  Q 149.22 85.73 163.96 93.26
  Q 164.82 93.71 167.12 95.73
  A 2.06 2.04 16.1 0 1 167.78 96.92
  C 168.19 99.39 168.76 105.13 166.44 106.87
  Q 159.22 112.27 149.37 117.25
  C 145.47 119.22 138.93 116.03 135.47 114.15
  A 0.38 0.37 -47.2 0 1 135.45 113.50
  L 154.27 101.50
  Z"
/>
<path fill="#333333" d="
  M 153.23 139.51
  A 1.35 1.34 38.0 0 0 152.96 137.35
  Q 143.69 132.29 135.00 127.76
  Q 133.66 127.06 132.36 127.82
  Q 114.12 138.48 94.81 151.60
  C 87.89 156.30 81.43 157.44 73.91 153.28
  Q 53.24 141.82 33.39 131.40
  Q 28.00 128.57 22.13 125.94
  C 18.90 124.50 17.97 119.66 18.74 116.55
  C 19.86 111.97 24.38 109.44 28.81 108.68
  Q 30.78 108.34 32.56 109.41
  Q 36.74 111.91 41.19 114.50
  Q 63.03 127.18 81.06 137.71
  C 85.78 140.46 89.84 139.70 94.39 137.04
  Q 114.40 125.34 131.57 114.82
  A 2.19 2.19 0.0 0 1 133.87 114.82
  C 144.42 121.32 154.30 126.38 164.70 131.89
  C 166.62 132.91 167.95 134.94 168.26 137.11
  Q 169.16 143.28 163.22 146.64
  Q 128.84 166.11 97.02 187.42
  Q 91.99 190.79 85.70 189.48
  Q 81.96 188.69 76.22 184.61
  Q 71.43 181.20 63.38 176.70
  Q 43.68 165.68 22.30 153.74
  C 19.21 152.02 17.86 149.18 19.64 145.72
  C 20.68 143.72 23.12 142.58 25.23 142.22
  C 28.25 141.71 31.42 145.15 33.93 146.62
  Q 70.86 168.20 81.45 174.58
  C 86.69 177.74 91.43 177.20 96.47 174.15
  Q 126.59 155.85 150.50 141.54
  Q 152.04 140.62 153.23 139.51
  Z"
/>
</svg>
