<?xml version="1.0" encoding="UTF-8" standalone="no"?>
<!DOCTYPE svg PUBLIC "-//W3C//DTD SVG 1.1//EN" "http://www.w3.org/Graphics/SVG/1.1/DTD/svg11.dtd">
<svg xmlns="http://www.w3.org/2000/svg" version="1.1" viewBox="0.00 0.00 1078.00 276.00">
<g stroke-width="2.00" fill="none" stroke-linecap="butt">
<path stroke="#999999" vector-effect="non-scaling-stroke" d="
  M 593.20 107.94
  Q 593.10 108.18 592.87 108.32
  Q 583.70 113.84 574.36 119.52
  A 0.58 0.58 0.0 0 0 574.41 120.54
  Q 578.25 122.34 582.01 123.98
  C 583.83 124.78 585.64 124.81 587.41 123.79
  Q 597.44 118.03 605.74 112.76
  A 3.32 3.31 -17.6 0 0 607.27 109.83
  L 607.00 103.60
  A 3.68 3.67 13.3 0 0 605.11 100.55
  Q 569.07 80.49 532.80 59.87
  Q 526.48 56.28 523.25 55.96
  Q 515.35 55.17 509.91 61.14
  C 506.08 65.35 508.85 69.84 513.56 71.13
  Q 520.21 72.94 527.97 71.22
  C 530.09 70.75 532.06 71.49 533.86 72.55
  Q 556.37 85.75 581.66 99.83
  C 585.58 102.02 589.30 104.56 592.96 107.10
  A 0.68 0.68 0.0 0 1 593.20 107.94"
/>
<path stroke="#91d1e9" vector-effect="non-scaling-stroke" d="
  M 502.34 75.70
  C 499.05 74.51 495.64 72.87 492.24 74.86
  Q 471.03 87.32 454.26 97.83
  C 451.93 99.28 448.44 102.05 451.30 105.11
  C 454.63 108.69 460.23 110.63 464.73 107.80
  Q 486.30 94.23 508.10 80.04
  A 0.63 0.63 0.0 0 0 508.16 79.02
  Q 505.57 76.88 502.34 75.70"
/>
<path stroke="#808080" vector-effect="non-scaling-stroke" d="
  M 922.77 115.02
  Q 922.76 115.87 921.95 115.62
  Q 906.64 110.88 892.44 113.85
  C 877.40 117.00 875.06 127.52 874.77 141.03
  Q 874.46 155.33 874.97 167.00
  Q 875.23 173.03 876.59 177.92
  C 881.31 194.91 901.74 197.27 916.25 196.87
  Q 932.34 196.43 947.65 193.71
  Q 948.00 193.65 948.00 193.29
  L 948.00 76.44
  A 0.28 0.28 0.0 0 0 947.67 76.16
  L 923.44 80.48
  Q 922.96 80.57 922.96 81.05
  L 922.77 115.02"
/>
<path stroke="#808080" vector-effect="non-scaling-stroke" d="
  M 159.02 115.81
  L 159.03 77.70
  Q 159.03 77.11 158.44 77.20
  L 134.45 81.25
  Q 133.77 81.36 133.77 82.05
  L 133.78 195.76
  A 0.24 0.23 90.0 0 0 134.01 196.00
  L 158.51 196.00
  A 0.51 0.51 0.0 0 0 159.02 195.49
  L 159.02 138.51
  Q 159.02 137.98 159.49 137.73
  C 167.01 133.67 181.69 131.01 181.72 143.90
  Q 181.77 167.60 181.75 195.70
  A 0.30 0.30 0.0 0 0 182.05 196.00
  L 206.51 196.00
  Q 207.09 196.00 207.09 195.43
  Q 207.22 169.73 207.03 142.43
  C 207.01 138.64 206.58 134.72 206.08 130.98
  C 203.28 110.14 173.73 111.86 159.81 116.38
  Q 159.02 116.64 159.02 115.81"
/>
<path stroke="#808080" vector-effect="non-scaling-stroke" d="
  M 88.33 154.91
  C 95.32 159.07 94.09 167.75 86.68 170.49
  Q 81.68 172.34 76.15 172.46
  C 64.09 172.74 51.63 170.64 39.33 168.19
  A 0.27 0.27 0.0 0 0 39.01 168.48
  L 41.17 193.07
  A 0.80 0.80 0.0 0 0 41.82 193.78
  Q 60.07 196.99 78.76 196.87
  C 101.79 196.71 119.83 189.56 121.80 163.57
  C 123.86 136.36 99.66 132.44 80.06 126.39
  C 73.83 124.46 62.05 119.47 67.72 110.51
  C 70.71 105.79 78.40 104.43 83.52 104.30
  C 94.17 104.03 104.96 105.29 115.87 107.55
  Q 116.53 107.69 116.46 107.02
  L 114.13 83.24
  Q 114.08 82.72 113.56 82.63
  C 98.36 80.24 82.02 78.86 66.59 81.46
  C 46.23 84.90 36.98 98.61 37.65 118.86
  C 38.40 141.93 62.63 146.14 79.95 151.26
  Q 84.44 152.59 88.33 154.91"
/>
<path stroke="#808080" vector-effect="non-scaling-stroke" d="
  M 677.62 155.82
  C 683.58 160.29 681.05 168.07 674.75 170.46
  C 666.60 173.55 656.72 172.67 647.93 171.59
  Q 637.32 170.28 627.61 168.21
  Q 626.97 168.07 627.03 168.72
  L 629.19 193.24
  A 0.63 0.62 2.4 0 0 629.71 193.80
  C 646.05 196.54 663.50 198.13 679.99 195.77
  C 698.83 193.09 708.47 181.73 709.82 163.11
  C 711.74 136.49 687.79 132.50 668.04 126.40
  C 663.69 125.05 657.56 122.72 655.30 118.52
  Q 653.11 114.45 655.82 110.36
  C 658.91 105.72 666.44 104.46 671.55 104.32
  C 682.19 104.02 692.95 105.30 703.87 107.56
  Q 704.53 107.70 704.46 107.02
  L 702.13 83.24
  Q 702.08 82.75 701.60 82.67
  Q 689.64 80.67 674.66 80.12
  Q 660.64 79.61 648.80 82.83
  Q 639.49 85.36 633.42 92.24
  C 626.75 99.80 624.60 112.61 625.99 122.44
  C 627.30 131.74 633.00 137.89 641.13 142.05
  C 650.10 146.63 660.23 148.91 669.73 151.87
  Q 674.21 153.26 677.62 155.82"
/>
<path stroke="#808080" vector-effect="non-scaling-stroke" d="
  M 759.52 113.26
  L 759.54 89.69
  Q 759.54 89.12 758.98 89.22
  L 735.06 93.33
  Q 734.55 93.42 734.55 93.94
  L 734.55 113.45
  Q 734.55 114.00 734.00 114.00
  L 722.76 114.00
  Q 722.26 114.00 722.26 114.49
  L 722.26 134.52
  A 0.51 0.50 0.0 0 0 722.77 135.02
  L 733.97 135.02
  Q 734.58 135.02 734.58 135.63
  Q 734.44 152.59 734.79 169.87
  C 735.04 182.02 739.64 192.57 752.83 195.01
  C 760.98 196.52 769.07 196.26 777.67 196.18
  Q 778.30 196.18 778.30 195.55
  L 778.30 178.45
  Q 778.30 177.80 777.66 177.78
  C 773.34 177.65 761.56 176.34 760.28 170.90
  Q 759.39 167.09 759.50 162.93
  C 759.76 153.43 759.50 144.08 759.54 135.67
  Q 759.54 135.02 760.19 135.02
  L 775.82 135.02
  Q 776.18 135.02 776.22 134.67
  L 778.72 114.52
  A 0.46 0.45 -86.1 0 0 778.27 114.00
  L 760.26 114.00
  Q 759.52 114.00 759.52 113.26"
/>
<path stroke="#808080" vector-effect="non-scaling-stroke" d="
  M 318.52 119.37
  Q 317.85 116.71 316.72 114.28
  Q 316.49 113.80 315.97 113.80
  L 296.44 113.80
  Q 295.93 113.80 295.93 114.31
  L 295.93 195.47
  Q 295.93 196.00 296.47 196.00
  L 320.53 196.00
  A 0.29 0.28 0.0 0 0 320.82 195.72
  L 320.82 141.22
  A 0.76 0.75 -12.0 0 1 321.27 140.53
  Q 334.72 134.59 348.14 134.42
  Q 348.76 134.41 348.69 133.80
  L 346.40 113.48
  A 0.46 0.46 0.0 0 0 345.90 113.07
  Q 332.41 114.27 319.25 119.74
  A 0.54 0.54 0.0 0 1 318.52 119.37"
/>
<path stroke="#808080" vector-effect="non-scaling-stroke" d="
  M 383.02 162.02
  L 427.96 162.02
  Q 428.31 162.02 428.31 161.68
  Q 428.53 151.33 428.15 141.86
  C 427.51 125.79 417.59 116.17 402.00 113.81
  C 392.23 112.33 379.61 112.94 371.29 117.65
  Q 357.73 125.31 357.36 142.42
  Q 357.11 153.78 357.36 164.91
  C 357.80 184.71 370.86 195.65 390.15 196.70
  Q 408.32 197.69 426.00 193.80
  A 0.46 0.46 0.0 0 0 426.36 193.35
  L 426.37 173.56
  A 0.40 0.40 0.0 0 0 425.89 173.17
  Q 409.25 176.50 393.27 175.90
  C 384.39 175.56 382.15 171.12 382.44 162.58
  Q 382.46 162.02 383.02 162.02"
/>
<path stroke="#808080" vector-effect="non-scaling-stroke" d="
  M 264.33 191.25
  L 265.32 195.40
  Q 265.47 196.03 266.13 196.03
  L 285.74 196.03
  Q 286.27 196.03 286.27 195.50
  Q 286.33 171.30 286.24 142.75
  Q 286.23 139.61 285.74 136.37
  C 284.33 126.93 281.29 120.11 271.78 116.82
  Q 265.05 114.50 257.75 114.25
  Q 243.52 113.77 228.27 114.07
  Q 227.79 114.08 227.74 114.55
  L 225.52 134.47
  Q 225.48 134.82 225.84 134.82
  Q 238.08 134.73 248.96 134.84
  C 254.47 134.90 260.70 135.22 260.86 142.57
  Q 260.94 146.03 261.16 149.17
  Q 261.23 150.07 260.32 150.05
  Q 250.72 149.78 238.80 150.44
  C 226.19 151.13 218.12 156.97 217.31 170.07
  C 216.63 181.03 220.72 191.46 230.99 195.33
  Q 237.86 197.91 247.65 196.42
  Q 256.28 195.10 263.89 191.05
  A 0.31 0.31 0.0 0 1 264.33 191.25"
/>
<path stroke="#808080" vector-effect="non-scaling-stroke" d="
  M 841.63 191.27
  Q 842.12 193.28 843.18 195.18
  A 1.22 1.22 0.0 0 0 844.24 195.80
  L 864.28 195.79
  Q 864.56 195.79 864.56 195.52
  L 864.55 114.54
  Q 864.55 114.00 864.01 114.00
  L 839.77 114.00
  Q 839.29 114.00 839.29 114.48
  L 839.13 171.44
  Q 839.13 172.04 838.60 172.32
  C 830.54 176.65 815.61 178.76 815.57 165.39
  Q 815.50 140.10 815.55 114.33
  A 0.33 0.33 0.0 0 0 815.22 114.00
  L 790.48 114.00
  A 0.41 0.41 0.0 0 0 790.07 114.41
  Q 790.07 137.13 790.06 160.45
  Q 790.06 168.55 790.78 176.37
  C 791.95 189.02 801.12 196.36 813.35 196.92
  Q 827.88 197.57 840.84 190.92
  Q 841.46 190.60 841.63 191.27"
/>
<path stroke="#808080" vector-effect="non-scaling-stroke" d="
  M 1002.09 163.81
  L 983.47 114.50
  Q 983.28 114.00 982.74 114.00
  L 955.80 114.00
  A 0.30 0.29 78.6 0 0 955.53 114.41
  Q 971.95 153.94 988.67 194.06
  Q 989.36 195.71 989.19 197.46
  C 988.87 200.71 987.87 204.04 984.58 205.38
  C 979.16 207.58 972.67 207.11 966.84 206.75
  A 0.53 0.53 0.0 0 0 966.27 207.28
  L 966.26 227.02
  Q 966.26 227.62 966.86 227.66
  Q 977.52 228.53 986.90 227.21
  C 1003.21 224.92 1010.65 214.02 1015.93 199.24
  Q 1031.23 156.46 1046.14 114.52
  A 0.39 0.38 -79.9 0 0 1045.78 114.00
  L 1019.33 114.00
  Q 1018.81 114.00 1018.65 114.50
  L 1002.75 163.79
  Q 1002.44 164.75 1002.09 163.81"
/>
<path stroke="#999999" vector-effect="non-scaling-stroke" d="
  M 592.60 145.12
  Q 592.93 145.91 592.48 146.20
  Q 581.84 153.06 572.49 158.96
  A 0.39 0.38 43.6 0 0 572.51 159.62
  C 576.60 162.01 582.95 164.87 587.48 162.65
  Q 594.29 159.31 603.42 153.23
  Q 606.52 151.16 606.92 146.91
  Q 607.53 140.37 602.29 137.69
  Q 587.35 130.05 572.28 121.77
  A 2.31 2.29 43.5 0 0 569.98 121.82
  Q 552.16 132.59 533.67 142.93
  C 527.60 146.33 522.38 149.09 515.86 145.48
  Q 489.98 131.12 466.79 118.08
  C 465.21 117.19 462.92 115.84 461.05 116.27
  C 454.58 117.75 447.77 122.18 450.54 129.99
  Q 451.18 131.79 453.00 132.67
  Q 482.05 146.76 510.89 162.89
  C 516.74 166.16 523.48 164.45 528.72 160.93
  Q 548.63 147.58 569.67 134.37
  A 2.35 2.34 42.5 0 1 571.99 134.27
  L 592.24 144.74
  A 0.75 0.73 -89.2 0 1 592.60 145.12"
/>
<path stroke="#999999" vector-effect="non-scaling-stroke" d="
  M 591.35 184.44
  Q 591.96 186.27 590.31 187.26
  Q 562.18 204.19 534.41 220.98
  C 527.52 225.16 522.58 227.45 515.60 223.30
  Q 490.05 208.14 467.60 195.09
  C 464.52 193.30 460.14 189.22 456.88 189.28
  Q 453.42 189.35 451.12 192.24
  C 448.14 195.98 450.14 199.58 453.84 201.63
  Q 475.96 213.87 496.72 225.50
  C 503.03 229.03 508.98 233.20 515.04 236.85
  C 520.66 240.24 527.18 239.99 532.58 236.34
  Q 564.61 214.77 600.39 194.52
  Q 602.34 193.42 604.11 191.95
  C 607.39 189.23 608.02 183.87 605.56 180.61
  Q 604.15 178.75 601.84 177.59
  Q 586.06 169.65 570.62 160.41
  A 2.19 2.19 0.0 0 0 568.36 160.41
  Q 548.76 172.37 529.07 183.90
  C 523.84 186.96 519.20 186.96 514.07 183.95
  Q 488.51 168.90 464.28 154.90
  C 460.41 152.67 455.17 154.98 452.30 157.68
  C 448.88 160.90 448.55 165.91 450.74 169.89
  C 451.08 170.52 451.88 171.37 452.53 171.68
  C 469.31 179.68 486.48 189.02 502.73 198.21
  Q 510.60 202.66 514.38 203.18
  Q 521.81 204.20 528.28 199.86
  Q 551.04 184.56 569.20 173.95
  C 569.97 173.50 571.19 173.58 571.97 173.98
  Q 580.47 178.28 591.26 184.33
  Q 591.33 184.37 591.35 184.44"
/>
<path stroke="#808080" vector-effect="non-scaling-stroke" d="
  M 905.75 175.00
  C 910.49 177.02 917.41 176.52 922.43 175.90
  Q 922.75 175.86 922.75 175.54
  L 922.75 138.03
  Q 922.75 137.51 922.30 137.24
  C 916.39 133.70 903.20 130.97 900.34 139.91
  Q 899.84 141.49 899.81 148.45
  Q 899.77 155.96 899.90 163.76
  C 899.98 168.69 900.64 172.83 905.75 175.00"
/>
<path stroke="#808080" vector-effect="non-scaling-stroke" d="
  M 382.62 144.95
  L 402.78 145.05
  A 0.30 0.30 0.0 0 0 403.08 144.75
  L 403.10 140.94
  A 8.80 8.65 0.3 0 0 394.34 132.25
  L 391.18 132.23
  A 8.80 8.65 0.3 0 0 382.34 140.84
  L 382.32 144.65
  A 0.30 0.30 0.0 0 0 382.62 144.95"
/>
<path stroke="#808080" vector-effect="non-scaling-stroke" d="
  M 243.48 176.55
  C 246.82 181.77 256.07 178.08 260.52 176.14
  Q 261.11 175.89 261.11 175.25
  L 261.09 167.23
  Q 261.09 166.70 260.56 166.68
  Q 251.09 166.35 245.65 167.28
  C 241.52 167.98 241.87 174.03 243.48 176.55"
/>
</g>
<path fill="#ffffff" d="
  M 0.00 0.00
  L 1078.00 0.00
  L 1078.00 276.00
  L 0.00 276.00
  L 0.00 0.00
  Z
  M 593.20 107.94
  Q 593.10 108.18 592.87 108.32
  Q 583.70 113.84 574.36 119.52
  A 0.58 0.58 0.0 0 0 574.41 120.54
  Q 578.25 122.34 582.01 123.98
  C 583.83 124.78 585.64 124.81 587.41 123.79
  Q 597.44 118.03 605.74 112.76
  A 3.32 3.31 -17.6 0 0 607.27 109.83
  L 607.00 103.60
  A 3.68 3.67 13.3 0 0 605.11 100.55
  Q 569.07 80.49 532.80 59.87
  Q 526.48 56.28 523.25 55.96
  Q 515.35 55.17 509.91 61.14
  C 506.08 65.35 508.85 69.84 513.56 71.13
  Q 520.21 72.94 527.97 71.22
  C 530.09 70.75 532.06 71.49 533.86 72.55
  Q 556.37 85.75 581.66 99.83
  C 585.58 102.02 589.30 104.56 592.96 107.10
  A 0.68 0.68 0.0 0 1 593.20 107.94
  Z
  M 502.34 75.70
  C 499.05 74.51 495.64 72.87 492.24 74.86
  Q 471.03 87.32 454.26 97.83
  C 451.93 99.28 448.44 102.05 451.30 105.11
  C 454.63 108.69 460.23 110.63 464.73 107.80
  Q 486.30 94.23 508.10 80.04
  A 0.63 0.63 0.0 0 0 508.16 79.02
  Q 505.57 76.88 502.34 75.70
  Z
  M 922.77 115.02
  Q 922.76 115.87 921.95 115.62
  Q 906.64 110.88 892.44 113.85
  C 877.40 117.00 875.06 127.52 874.77 141.03
  Q 874.46 155.33 874.97 167.00
  Q 875.23 173.03 876.59 177.92
  C 881.31 194.91 901.74 197.27 916.25 196.87
  Q 932.34 196.43 947.65 193.71
  Q 948.00 193.65 948.00 193.29
  L 948.00 76.44
  A 0.28 0.28 0.0 0 0 947.67 76.16
  L 923.44 80.48
  Q 922.96 80.57 922.96 81.05
  L 922.77 115.02
  Z
  M 159.02 115.81
  L 159.03 77.70
  Q 159.03 77.11 158.44 77.20
  L 134.45 81.25
  Q 133.77 81.36 133.77 82.05
  L 133.78 195.76
  A 0.24 0.23 90.0 0 0 134.01 196.00
  L 158.51 196.00
  A 0.51 0.51 0.0 0 0 159.02 195.49
  L 159.02 138.51
  Q 159.02 137.98 159.49 137.73
  C 167.01 133.67 181.69 131.01 181.72 143.90
  Q 181.77 167.60 181.75 195.70
  A 0.30 0.30 0.0 0 0 182.05 196.00
  L 206.51 196.00
  Q 207.09 196.00 207.09 195.43
  Q 207.22 169.73 207.03 142.43
  C 207.01 138.64 206.58 134.72 206.08 130.98
  C 203.28 110.14 173.73 111.86 159.81 116.38
  Q 159.02 116.64 159.02 115.81
  Z
  M 88.33 154.91
  C 95.32 159.07 94.09 167.75 86.68 170.49
  Q 81.68 172.34 76.15 172.46
  C 64.09 172.74 51.63 170.64 39.33 168.19
  A 0.27 0.27 0.0 0 0 39.01 168.48
  L 41.17 193.07
  A 0.80 0.80 0.0 0 0 41.82 193.78
  Q 60.07 196.99 78.76 196.87
  C 101.79 196.71 119.83 189.56 121.80 163.57
  C 123.86 136.36 99.66 132.44 80.06 126.39
  C 73.83 124.46 62.05 119.47 67.72 110.51
  C 70.71 105.79 78.40 104.43 83.52 104.30
  C 94.17 104.03 104.96 105.29 115.87 107.55
  Q 116.53 107.69 116.46 107.02
  L 114.13 83.24
  Q 114.08 82.72 113.56 82.63
  C 98.36 80.24 82.02 78.86 66.59 81.46
  C 46.23 84.90 36.98 98.61 37.65 118.86
  C 38.40 141.93 62.63 146.14 79.95 151.26
  Q 84.44 152.59 88.33 154.91
  Z
  M 677.62 155.82
  C 683.58 160.29 681.05 168.07 674.75 170.46
  C 666.60 173.55 656.72 172.67 647.93 171.59
  Q 637.32 170.28 627.61 168.21
  Q 626.97 168.07 627.03 168.72
  L 629.19 193.24
  A 0.63 0.62 2.4 0 0 629.71 193.80
  C 646.05 196.54 663.50 198.13 679.99 195.77
  C 698.83 193.09 708.47 181.73 709.82 163.11
  C 711.74 136.49 687.79 132.50 668.04 126.40
  C 663.69 125.05 657.56 122.72 655.30 118.52
  Q 653.11 114.45 655.82 110.36
  C 658.91 105.72 666.44 104.46 671.55 104.32
  C 682.19 104.02 692.95 105.30 703.87 107.56
  Q 704.53 107.70 704.46 107.02
  L 702.13 83.24
  Q 702.08 82.75 701.60 82.67
  Q 689.64 80.67 674.66 80.12
  Q 660.64 79.61 648.80 82.83
  Q 639.49 85.36 633.42 92.24
  C 626.75 99.80 624.60 112.61 625.99 122.44
  C 627.30 131.74 633.00 137.89 641.13 142.05
  C 650.10 146.63 660.23 148.91 669.73 151.87
  Q 674.21 153.26 677.62 155.82
  Z
  M 759.52 113.26
  L 759.54 89.69
  Q 759.54 89.12 758.98 89.22
  L 735.06 93.33
  Q 734.55 93.42 734.55 93.94
  L 734.55 113.45
  Q 734.55 114.00 734.00 114.00
  L 722.76 114.00
  Q 722.26 114.00 722.26 114.49
  L 722.26 134.52
  A 0.51 0.50 0.0 0 0 722.77 135.02
  L 733.97 135.02
  Q 734.58 135.02 734.58 135.63
  Q 734.44 152.59 734.79 169.87
  C 735.04 182.02 739.64 192.57 752.83 195.01
  C 760.98 196.52 769.07 196.26 777.67 196.18
  Q 778.30 196.18 778.30 195.55
  L 778.30 178.45
  Q 778.30 177.80 777.66 177.78
  C 773.34 177.65 761.56 176.34 760.28 170.90
  Q 759.39 167.09 759.50 162.93
  C 759.76 153.43 759.50 144.08 759.54 135.67
  Q 759.54 135.02 760.19 135.02
  L 775.82 135.02
  Q 776.18 135.02 776.22 134.67
  L 778.72 114.52
  A 0.46 0.45 -86.1 0 0 778.27 114.00
  L 760.26 114.00
  Q 759.52 114.00 759.52 113.26
  Z
  M 318.52 119.37
  Q 317.85 116.71 316.72 114.28
  Q 316.49 113.80 315.97 113.80
  L 296.44 113.80
  Q 295.93 113.80 295.93 114.31
  L 295.93 195.47
  Q 295.93 196.00 296.47 196.00
  L 320.53 196.00
  A 0.29 0.28 0.0 0 0 320.82 195.72
  L 320.82 141.22
  A 0.76 0.75 -12.0 0 1 321.27 140.53
  Q 334.72 134.59 348.14 134.42
  Q 348.76 134.41 348.69 133.80
  L 346.40 113.48
  A 0.46 0.46 0.0 0 0 345.90 113.07
  Q 332.41 114.27 319.25 119.74
  A 0.54 0.54 0.0 0 1 318.52 119.37
  Z
  M 383.02 162.02
  L 427.96 162.02
  Q 428.31 162.02 428.31 161.68
  Q 428.53 151.33 428.15 141.86
  C 427.51 125.79 417.59 116.17 402.00 113.81
  C 392.23 112.33 379.61 112.94 371.29 117.65
  Q 357.73 125.31 357.36 142.42
  Q 357.11 153.78 357.36 164.91
  C 357.80 184.71 370.86 195.65 390.15 196.70
  Q 408.32 197.69 426.00 193.80
  A 0.46 0.46 0.0 0 0 426.36 193.35
  L 426.37 173.56
  A 0.40 0.40 0.0 0 0 425.89 173.17
  Q 409.25 176.50 393.27 175.90
  C 384.39 175.56 382.15 171.12 382.44 162.58
  Q 382.46 162.02 383.02 162.02
  Z
  M 264.33 191.25
  L 265.32 195.40
  Q 265.47 196.03 266.13 196.03
  L 285.74 196.03
  Q 286.27 196.03 286.27 195.50
  Q 286.33 171.30 286.24 142.75
  Q 286.23 139.61 285.74 136.37
  C 284.33 126.93 281.29 120.11 271.78 116.82
  Q 265.05 114.50 257.75 114.25
  Q 243.52 113.77 228.27 114.07
  Q 227.79 114.08 227.74 114.55
  L 225.52 134.47
  Q 225.48 134.82 225.84 134.82
  Q 238.08 134.73 248.96 134.84
  C 254.47 134.90 260.70 135.22 260.86 142.57
  Q 260.94 146.03 261.16 149.17
  Q 261.23 150.07 260.32 150.05
  Q 250.72 149.78 238.80 150.44
  C 226.19 151.13 218.12 156.97 217.31 170.07
  C 216.63 181.03 220.72 191.46 230.99 195.33
  Q 237.86 197.91 247.65 196.42
  Q 256.28 195.10 263.89 191.05
  A 0.31 0.31 0.0 0 1 264.33 191.25
  Z
  M 841.63 191.27
  Q 842.12 193.28 843.18 195.18
  A 1.22 1.22 0.0 0 0 844.24 195.80
  L 864.28 195.79
  Q 864.56 195.79 864.56 195.52
  L 864.55 114.54
  Q 864.55 114.00 864.01 114.00
  L 839.77 114.00
  Q 839.29 114.00 839.29 114.48
  L 839.13 171.44
  Q 839.13 172.04 838.60 172.32
  C 830.54 176.65 815.61 178.76 815.57 165.39
  Q 815.50 140.10 815.55 114.33
  A 0.33 0.33 0.0 0 0 815.22 114.00
  L 790.48 114.00
  A 0.41 0.41 0.0 0 0 790.07 114.41
  Q 790.07 137.13 790.06 160.45
  Q 790.06 168.55 790.78 176.37
  C 791.95 189.02 801.12 196.36 813.35 196.92
  Q 827.88 197.57 840.84 190.92
  Q 841.46 190.60 841.63 191.27
  Z
  M 1002.09 163.81
  L 983.47 114.50
  Q 983.28 114.00 982.74 114.00
  L 955.80 114.00
  A 0.30 0.29 78.6 0 0 955.53 114.41
  Q 971.95 153.94 988.67 194.06
  Q 989.36 195.71 989.19 197.46
  C 988.87 200.71 987.87 204.04 984.58 205.38
  C 979.16 207.58 972.67 207.11 966.84 206.75
  A 0.53 0.53 0.0 0 0 966.27 207.28
  L 966.26 227.02
  Q 966.26 227.62 966.86 227.66
  Q 977.52 228.53 986.90 227.21
  C 1003.21 224.92 1010.65 214.02 1015.93 199.24
  Q 1031.23 156.46 1046.14 114.52
  A 0.39 0.38 -79.9 0 0 1045.78 114.00
  L 1019.33 114.00
  Q 1018.81 114.00 1018.65 114.50
  L 1002.75 163.79
  Q 1002.44 164.75 1002.09 163.81
  Z
  M 592.60 145.12
  Q 592.93 145.91 592.48 146.20
  Q 581.84 153.06 572.49 158.96
  A 0.39 0.38 43.6 0 0 572.51 159.62
  C 576.60 162.01 582.95 164.87 587.48 162.65
  Q 594.29 159.31 603.42 153.23
  Q 606.52 151.16 606.92 146.91
  Q 607.53 140.37 602.29 137.69
  Q 587.35 130.05 572.28 121.77
  A 2.31 2.29 43.5 0 0 569.98 121.82
  Q 552.16 132.59 533.67 142.93
  C 527.60 146.33 522.38 149.09 515.86 145.48
  Q 489.98 131.12 466.79 118.08
  C 465.21 117.19 462.92 115.84 461.05 116.27
  C 454.58 117.75 447.77 122.18 450.54 129.99
  Q 451.18 131.79 453.00 132.67
  Q 482.05 146.76 510.89 162.89
  C 516.74 166.16 523.48 164.45 528.72 160.93
  Q 548.63 147.58 569.67 134.37
  A 2.35 2.34 42.5 0 1 571.99 134.27
  L 592.24 144.74
  A 0.75 0.73 -89.2 0 1 592.60 145.12
  Z
  M 591.35 184.44
  Q 591.96 186.27 590.31 187.26
  Q 562.18 204.19 534.41 220.98
  C 527.52 225.16 522.58 227.45 515.60 223.30
  Q 490.05 208.14 467.60 195.09
  C 464.52 193.30 460.14 189.22 456.88 189.28
  Q 453.42 189.35 451.12 192.24
  C 448.14 195.98 450.14 199.58 453.84 201.63
  Q 475.96 213.87 496.72 225.50
  C 503.03 229.03 508.98 233.20 515.04 236.85
  C 520.66 240.24 527.18 239.99 532.58 236.34
  Q 564.61 214.77 600.39 194.52
  Q 602.34 193.42 604.11 191.95
  C 607.39 189.23 608.02 183.87 605.56 180.61
  Q 604.15 178.75 601.84 177.59
  Q 586.06 169.65 570.62 160.41
  A 2.19 2.19 0.0 0 0 568.36 160.41
  Q 548.76 172.37 529.07 183.90
  C 523.84 186.96 519.20 186.96 514.07 183.95
  Q 488.51 168.90 464.28 154.90
  C 460.41 152.67 455.17 154.98 452.30 157.68
  C 448.88 160.90 448.55 165.91 450.74 169.89
  C 451.08 170.52 451.88 171.37 452.53 171.68
  C 469.31 179.68 486.48 189.02 502.73 198.21
  Q 510.60 202.66 514.38 203.18
  Q 521.81 204.20 528.28 199.86
  Q 551.04 184.56 569.20 173.95
  C 569.97 173.50 571.19 173.58 571.97 173.98
  Q 580.47 178.28 591.26 184.33
  Q 591.33 184.37 591.35 184.44
  Z"
/>
<path fill="#333333" d="
  M 593.20 107.94
  A 0.68 0.68 0.0 0 0 592.96 107.10
  C 589.30 104.56 585.58 102.02 581.66 99.83
  Q 556.37 85.75 533.86 72.55
  C 532.06 71.49 530.09 70.75 527.97 71.22
  Q 520.21 72.94 513.56 71.13
  C 508.85 69.84 506.08 65.35 509.91 61.14
  Q 515.35 55.17 523.25 55.96
  Q 526.48 56.28 532.80 59.87
  Q 569.07 80.49 605.11 100.55
  A 3.68 3.67 13.3 0 1 607.00 103.60
  L 607.27 109.83
  A 3.32 3.31 -17.6 0 1 605.74 112.76
  Q 597.44 118.03 587.41 123.79
  C 585.64 124.81 583.83 124.78 582.01 123.98
  Q 578.25 122.34 574.41 120.54
  A 0.58 0.58 0.0 0 1 574.36 119.52
  Q 583.70 113.84 592.87 108.32
  Q 593.10 108.18 593.20 107.94
  Z"
/>
<path fill="#23a3d2" d="
  M 502.34 75.70
  Q 505.57 76.88 508.16 79.02
  A 0.63 0.63 0.0 0 1 508.10 80.04
  Q 486.30 94.23 464.73 107.80
  C 460.23 110.63 454.63 108.69 451.30 105.11
  C 448.44 102.05 451.93 99.28 454.26 97.83
  Q 471.03 87.32 492.24 74.86
  C 495.64 72.87 499.05 74.51 502.34 75.70
  Z"
/>
<path fill="#000000" d="
  M 922.77 115.02
  L 922.96 81.05
  Q 922.96 80.57 923.44 80.48
  L 947.67 76.16
  A 0.28 0.28 0.0 0 1 948.00 76.44
  L 948.00 193.29
  Q 948.00 193.65 947.65 193.71
  Q 932.34 196.43 916.25 196.87
  C 901.74 197.27 881.31 194.91 876.59 177.92
  Q 875.23 173.03 874.97 167.00
  Q 874.46 155.33 874.77 141.03
  C 875.06 127.52 877.40 117.00 892.44 113.85
  Q 906.64 110.88 921.95 115.62
  Q 922.76 115.87 922.77 115.02
  Z
  M 905.75 175.00
  C 910.49 177.02 917.41 176.52 922.43 175.90
  Q 922.75 175.86 922.75 175.54
  L 922.75 138.03
  Q 922.75 137.51 922.30 137.24
  C 916.39 133.70 903.20 130.97 900.34 139.91
  Q 899.84 141.49 899.81 148.45
  Q 899.77 155.96 899.90 163.76
  C 899.98 168.69 900.64 172.83 905.75 175.00
  Z"
/>
<path fill="#000000" d="
  M 159.81 116.38
  C 173.73 111.86 203.28 110.14 206.08 130.98
  C 206.58 134.72 207.01 138.64 207.03 142.43
  Q 207.22 169.73 207.09 195.43
  Q 207.09 196.00 206.51 196.00
  L 182.05 196.00
  A 0.30 0.30 0.0 0 1 181.75 195.70
  Q 181.77 167.60 181.72 143.90
  C 181.69 131.01 167.01 133.67 159.49 137.73
  Q 159.02 137.98 159.02 138.51
  L 159.02 195.49
  A 0.51 0.51 0.0 0 1 158.51 196.00
  L 134.01 196.00
  A 0.24 0.23 -90.0 0 1 133.78 195.76
  L 133.77 82.05
  Q 133.77 81.36 134.45 81.25
  L 158.44 77.20
  Q 159.03 77.11 159.03 77.70
  L 159.02 115.81
  Q 159.02 116.64 159.81 116.38
  Z"
/>
<path fill="#000000" d="
  M 86.68 170.49
  C 94.09 167.75 95.32 159.07 88.33 154.91
  Q 84.44 152.59 79.95 151.26
  C 62.63 146.14 38.40 141.93 37.65 118.86
  C 36.98 98.61 46.23 84.90 66.59 81.46
  C 82.02 78.86 98.36 80.24 113.56 82.63
  Q 114.08 82.72 114.13 83.24
  L 116.46 107.02
  Q 116.53 107.69 115.87 107.55
  C 104.96 105.29 94.17 104.03 83.52 104.30
  C 78.40 104.43 70.71 105.79 67.72 110.51
  C 62.05 119.47 73.83 124.46 80.06 126.39
  C 99.66 132.44 123.86 136.36 121.80 163.57
  C 119.83 189.56 101.79 196.71 78.76 196.87
  Q 60.07 196.99 41.82 193.78
  A 0.80 0.80 0.0 0 1 41.17 193.07
  L 39.01 168.48
  A 0.27 0.27 0.0 0 1 39.33 168.19
  C 51.63 170.64 64.09 172.74 76.15 172.46
  Q 81.68 172.34 86.68 170.49
  Z"
/>
<path fill="#000000" d="
  M 674.75 170.46
  C 681.05 168.07 683.58 160.29 677.62 155.82
  Q 674.21 153.26 669.73 151.87
  C 660.23 148.91 650.10 146.63 641.13 142.05
  C 633.00 137.89 627.30 131.74 625.99 122.44
  C 624.60 112.61 626.75 99.80 633.42 92.24
  Q 639.49 85.36 648.80 82.83
  Q 660.64 79.61 674.66 80.12
  Q 689.64 80.67 701.60 82.67
  Q 702.08 82.75 702.13 83.24
  L 704.46 107.02
  Q 704.53 107.70 703.87 107.56
  C 692.95 105.30 682.19 104.02 671.55 104.32
  C 666.44 104.46 658.91 105.72 655.82 110.36
  Q 653.11 114.45 655.30 118.52
  C 657.56 122.72 663.69 125.05 668.04 126.40
  C 687.79 132.50 711.74 136.49 709.82 163.11
  C 708.47 181.73 698.83 193.09 679.99 195.77
  C 663.50 198.13 646.05 196.54 629.71 193.80
  A 0.63 0.62 2.4 0 1 629.19 193.24
  L 627.03 168.72
  Q 626.97 168.07 627.61 168.21
  Q 637.32 170.28 647.93 171.59
  C 656.72 172.67 666.60 173.55 674.75 170.46
  Z"
/>
<path fill="#000000" d="
  M 760.26 114.00
  L 778.27 114.00
  A 0.46 0.45 -86.1 0 1 778.72 114.52
  L 776.22 134.67
  Q 776.18 135.02 775.82 135.02
  L 760.19 135.02
  Q 759.54 135.02 759.54 135.67
  C 759.50 144.08 759.76 153.43 759.50 162.93
  Q 759.39 167.09 760.28 170.90
  C 761.56 176.34 773.34 177.65 777.66 177.78
  Q 778.30 177.80 778.30 178.45
  L 778.30 195.55
  Q 778.30 196.18 777.67 196.18
  C 769.07 196.26 760.98 196.52 752.83 195.01
  C 739.64 192.57 735.04 182.02 734.79 169.87
  Q 734.44 152.59 734.58 135.63
  Q 734.58 135.02 733.97 135.02
  L 722.77 135.02
  A 0.51 0.50 0.0 0 1 722.26 134.52
  L 722.26 114.49
  Q 722.26 114.00 722.76 114.00
  L 734.00 114.00
  Q 734.55 114.00 734.55 113.45
  L 734.55 93.94
  Q 734.55 93.42 735.06 93.33
  L 758.98 89.22
  Q 759.54 89.12 759.54 89.69
  L 759.52 113.26
  Q 759.52 114.00 760.26 114.00
  Z"
/>
<path fill="#000000" d="
  M 318.52 119.37
  A 0.54 0.54 0.0 0 0 319.25 119.74
  Q 332.41 114.27 345.90 113.07
  A 0.46 0.46 0.0 0 1 346.40 113.48
  L 348.69 133.80
  Q 348.76 134.41 348.14 134.42
  Q 334.72 134.59 321.27 140.53
  A 0.76 0.75 -12.0 0 0 320.82 141.22
  L 320.82 195.72
  A 0.29 0.28 0.0 0 1 320.53 196.00
  L 296.47 196.00
  Q 295.93 196.00 295.93 195.47
  L 295.93 114.31
  Q 295.93 113.80 296.44 113.80
  L 315.97 113.80
  Q 316.49 113.80 316.72 114.28
  Q 317.85 116.71 318.52 119.37
  Z"
/>
<path fill="#000000" d="
  M 382.44 162.58
  C 382.15 171.12 384.39 175.56 393.27 175.90
  Q 409.25 176.50 425.89 173.17
  A 0.40 0.40 0.0 0 1 426.37 173.56
  L 426.36 193.35
  A 0.46 0.46 0.0 0 1 426.00 193.80
  Q 408.32 197.69 390.15 196.70
  C 370.86 195.65 357.80 184.71 357.36 164.91
  Q 357.11 153.78 357.36 142.42
  Q 357.73 125.31 371.29 117.65
  C 379.61 112.94 392.23 112.33 402.00 113.81
  C 417.59 116.17 427.51 125.79 428.15 141.86
  Q 428.53 151.33 428.31 161.68
  Q 428.31 162.02 427.96 162.02
  L 383.02 162.02
  Q 382.46 162.02 382.44 162.58
  Z
  M 382.62 144.95
  L 402.78 145.05
  A 0.30 0.30 0.0 0 0 403.08 144.75
  L 403.10 140.94
  A 8.80 8.65 0.3 0 0 394.34 132.25
  L 391.18 132.23
  A 8.80 8.65 0.3 0 0 382.34 140.84
  L 382.32 144.65
  A 0.30 0.30 0.0 0 0 382.62 144.95
  Z"
/>
<path fill="#000000" d="
  M 264.33 191.25
  A 0.31 0.31 0.0 0 0 263.89 191.05
  Q 256.28 195.10 247.65 196.42
  Q 237.86 197.91 230.99 195.33
  C 220.72 191.46 216.63 181.03 217.31 170.07
  C 218.12 156.97 226.19 151.13 238.80 150.44
  Q 250.72 149.78 260.32 150.05
  Q 261.23 150.07 261.16 149.17
  Q 260.94 146.03 260.86 142.57
  C 260.70 135.22 254.47 134.90 248.96 134.84
  Q 238.08 134.73 225.84 134.82
  Q 225.48 134.82 225.52 134.47
  L 227.74 114.55
  Q 227.79 114.08 228.27 114.07
  Q 243.52 113.77 257.75 114.25
  Q 265.05 114.50 271.78 116.82
  C 281.29 120.11 284.33 126.93 285.74 136.37
  Q 286.23 139.61 286.24 142.75
  Q 286.33 171.30 286.27 195.50
  Q 286.27 196.03 285.74 196.03
  L 266.13 196.03
  Q 265.47 196.03 265.32 195.40
  L 264.33 191.25
  Z
  M 243.48 176.55
  C 246.82 181.77 256.07 178.08 260.52 176.14
  Q 261.11 175.89 261.11 175.25
  L 261.09 167.23
  Q 261.09 166.70 260.56 166.68
  Q 251.09 166.35 245.65 167.28
  C 241.52 167.98 241.87 174.03 243.48 176.55
  Z"
/>
<path fill="#000000" d="
  M 840.84 190.92
  Q 827.88 197.57 813.35 196.92
  C 801.12 196.36 791.95 189.02 790.78 176.37
  Q 790.06 168.55 790.06 160.45
  Q 790.07 137.13 790.07 114.41
  A 0.41 0.41 0.0 0 1 790.48 114.00
  L 815.22 114.00
  A 0.33 0.33 0.0 0 1 815.55 114.33
  Q 815.50 140.10 815.57 165.39
  C 815.61 178.76 830.54 176.65 838.60 172.32
  Q 839.13 172.04 839.13 171.44
  L 839.29 114.48
  Q 839.29 114.00 839.77 114.00
  L 864.01 114.00
  Q 864.55 114.00 864.55 114.54
  L 864.56 195.52
  Q 864.56 195.79 864.28 195.79
  L 844.24 195.80
  A 1.22 1.22 0.0 0 1 843.18 195.18
  Q 842.12 193.28 841.63 191.27
  Q 841.46 190.60 840.84 190.92
  Z"
/>
<path fill="#000000" d="
  M 1002.09 163.81
  Q 1002.44 164.75 1002.75 163.79
  L 1018.65 114.50
  Q 1018.81 114.00 1019.33 114.00
  L 1045.78 114.00
  A 0.39 0.38 -79.9 0 1 1046.14 114.52
  Q 1031.23 156.46 1015.93 199.24
  C 1010.65 214.02 1003.21 224.92 986.90 227.21
  Q 977.52 228.53 966.86 227.66
  Q 966.26 227.62 966.26 227.02
  L 966.27 207.28
  A 0.53 0.53 0.0 0 1 966.84 206.75
  C 972.67 207.11 979.16 207.58 984.58 205.38
  C 987.87 204.04 988.87 200.71 989.19 197.46
  Q 989.36 195.71 988.67 194.06
  Q 971.95 153.94 955.53 114.41
  A 0.30 0.29 78.6 0 1 955.80 114.00
  L 982.74 114.00
  Q 983.28 114.00 983.47 114.50
  L 1002.09 163.81
  Z"
/>
<path fill="#333333" d="
  M 592.60 145.12
  A 0.75 0.73 -89.2 0 0 592.24 144.74
  L 571.99 134.27
  A 2.35 2.34 42.5 0 0 569.67 134.37
  Q 548.63 147.58 528.72 160.93
  C 523.48 164.45 516.74 166.16 510.89 162.89
  Q 482.05 146.76 453.00 132.67
  Q 451.18 131.79 450.54 129.99
  C 447.77 122.18 454.58 117.75 461.05 116.27
  C 462.92 115.84 465.21 117.19 466.79 118.08
  Q 489.98 131.12 515.86 145.48
  C 522.38 149.09 527.60 146.33 533.67 142.93
  Q 552.16 132.59 569.98 121.82
  A 2.31 2.29 43.5 0 1 572.28 121.77
  Q 587.35 130.05 602.29 137.69
  Q 607.53 140.37 606.92 146.91
  Q 606.52 151.16 603.42 153.23
  Q 594.29 159.31 587.48 162.65
  C 582.95 164.87 576.60 162.01 572.51 159.62
  A 0.39 0.38 43.6 0 1 572.49 158.96
  Q 581.84 153.06 592.48 146.20
  Q 592.93 145.91 592.60 145.12
  Z"
/>
<path fill="#ffffff" d="
  M 382.62 144.95
  A 0.30 0.30 0.0 0 1 382.32 144.65
  L 382.34 140.84
  A 8.80 8.65 0.3 0 1 391.18 132.23
  L 394.34 132.25
  A 8.80 8.65 0.3 0 1 403.10 140.94
  L 403.08 144.75
  A 0.30 0.30 0.0 0 1 402.78 145.05
  L 382.62 144.95
  Z"
/>
<path fill="#ffffff" d="
  M 905.75 175.00
  C 900.64 172.83 899.98 168.69 899.90 163.76
  Q 899.77 155.96 899.81 148.45
  Q 899.84 141.49 900.34 139.91
  C 903.20 130.97 916.39 133.70 922.30 137.24
  Q 922.75 137.51 922.75 138.03
  L 922.75 175.54
  Q 922.75 175.86 922.43 175.90
  C 917.41 176.52 910.49 177.02 905.75 175.00
  Z"
/>
<path fill="#333333" d="
  M 591.35 184.44
  Q 591.33 184.37 591.26 184.33
  Q 580.47 178.28 571.97 173.98
  C 571.19 173.58 569.97 173.50 569.20 173.95
  Q 551.04 184.56 528.28 199.86
  Q 521.81 204.20 514.38 203.18
  Q 510.60 202.66 502.73 198.21
  C 486.48 189.02 469.31 179.68 452.53 171.68
  C 451.88 171.37 451.08 170.52 450.74 169.89
  C 448.55 165.91 448.88 160.90 452.30 157.68
  C 455.17 154.98 460.41 152.67 464.28 154.90
  Q 488.51 168.90 514.07 183.95
  C 519.20 186.96 523.84 186.96 529.07 183.90
  Q 548.76 172.37 568.36 160.41
  A 2.19 2.19 0.0 0 1 570.62 160.41
  Q 586.06 169.65 601.84 177.59
  Q 604.15 178.75 605.56 180.61
  C 608.02 183.87 607.39 189.23 604.11 191.95
  Q 602.34 193.42 600.39 194.52
  Q 564.61 214.77 532.58 236.34
  C 527.18 239.99 520.66 240.24 515.04 236.85
  C 508.98 233.20 503.03 229.03 496.72 225.50
  Q 475.96 213.87 453.84 201.63
  C 450.14 199.58 448.14 195.98 451.12 192.24
  Q 453.42 189.35 456.88 189.28
  C 460.14 189.22 464.52 193.30 467.60 195.09
  Q 490.05 208.14 515.60 223.30
  C 522.58 227.45 527.52 225.16 534.41 220.98
  Q 562.18 204.19 590.31 187.26
  Q 591.96 186.27 591.35 184.44
  Z"
/>
<path fill="#ffffff" d="
  M 260.52 176.14
  C 256.07 178.08 246.82 181.77 243.48 176.55
  C 241.87 174.03 241.52 167.98 245.65 167.28
  Q 251.09 166.35 260.56 166.68
  Q 261.09 166.70 261.09 167.23
  L 261.11 175.25
  Q 261.11 175.89 260.52 176.14
  Z"
/>
</svg>
